<svg width="17.964798" height="14.589844" viewBox="0 0 17.9648 14.5898" fill="none" xmlns="http://www.w3.org/2000/svg" xmlns:xlink="http://www.w3.org/1999/xlink">
	<desc>
			Created with Pixso.
	</desc>
	<defs/>
	<path id="Vector" d="M16.13 3.62C16.83 3.09 17.47 2.46 17.96 1.72C17.33 2 16.59 2.21 15.85 2.28C16.62 1.82 17.19 1.12 17.47 0.24C16.76 0.66 15.96 0.98 15.15 1.16C14.44 0.42 13.5 0 12.44 0C10.4 0 8.75 1.65 8.75 3.69C8.75 3.97 8.78 4.25 8.85 4.53C5.8 4.35 3.05 2.88 1.23 0.66C0.91 1.19 0.73 1.82 0.73 2.53C0.73 3.79 1.37 4.92 2.39 5.58C1.79 5.55 1.19 5.41 0.7 5.13L0.7 5.16C0.7 6.96 1.96 8.43 3.65 8.78C3.37 8.85 3.02 8.92 2.7 8.92C2.46 8.92 2.25 8.89 2 8.85C2.46 10.33 3.83 11.39 5.44 11.42C4.18 12.41 2.6 13 0.87 13C0.56 13 0.28 12.97 0 12.93C1.61 13.99 3.55 14.58 5.66 14.58C12.44 14.58 16.13 9 16.13 4.11C16.13 3.93 16.13 3.79 16.13 3.62Z" fill="#292F36" fill-opacity="1.000000" fill-rule="nonzero"/>
</svg>
