<svg width="16.625000" height="16.625000" viewBox="0 0 16.625 16.625" fill="none" xmlns="http://www.w3.org/2000/svg" xmlns:xlink="http://www.w3.org/1999/xlink">
	<desc>
			Created with Pixso.
	</desc>
	<defs/>
	<path id="Vector" d="M8.33 4.02C5.95 4.02 4.06 5.95 4.06 8.29C4.06 10.66 5.95 12.56 8.33 12.56C10.66 12.56 12.59 10.66 12.59 8.29C12.59 5.95 10.66 4.02 8.33 4.02ZM8.33 11.07C6.8 11.07 5.54 9.85 5.54 8.29C5.54 6.77 6.77 5.54 8.33 5.54C9.85 5.54 11.07 6.77 11.07 8.29C11.07 9.85 9.85 11.07 8.33 11.07ZM13.74 3.87C13.74 3.32 13.3 2.87 12.74 2.87C12.19 2.87 11.74 3.32 11.74 3.87C11.74 4.43 12.19 4.87 12.74 4.87C13.3 4.87 13.74 4.43 13.74 3.87ZM16.56 4.87C16.49 3.54 16.19 2.35 15.23 1.39C14.26 0.42 13.08 0.12 11.74 0.05C10.37 -0.02 6.25 -0.02 4.87 0.05C3.54 0.12 2.39 0.42 1.39 1.39C0.42 2.35 0.12 3.54 0.05 4.87C-0.02 6.25 -0.02 10.37 0.05 11.74C0.12 13.08 0.42 14.23 1.39 15.23C2.39 16.19 3.54 16.49 4.87 16.56C6.25 16.64 10.37 16.64 11.74 16.56C13.08 16.49 14.26 16.19 15.23 15.23C16.19 14.23 16.49 13.08 16.56 11.74C16.64 10.37 16.64 6.25 16.56 4.87ZM14.78 13.19C14.52 13.93 13.93 14.49 13.22 14.78C12.11 15.23 9.51 15.12 8.33 15.12C7.1 15.12 4.5 15.23 3.43 14.78C2.69 14.49 2.13 13.93 1.83 13.19C1.39 12.11 1.5 9.51 1.5 8.29C1.5 7.1 1.39 4.5 1.83 3.39C2.13 2.69 2.69 2.13 3.43 1.83C4.5 1.39 7.1 1.5 8.33 1.5C9.51 1.5 12.11 1.39 13.22 1.83C13.93 2.09 14.49 2.69 14.78 3.39C15.23 4.5 15.12 7.1 15.12 8.29C15.12 9.51 15.23 12.11 14.78 13.19Z" fill="#292F36" fill-opacity="1.000000" fill-rule="nonzero"/>
</svg>
