<svg width="15.750000" height="15.714844" viewBox="0 0 15.75 15.7148" fill="none" xmlns="http://www.w3.org/2000/svg" xmlns:xlink="http://www.w3.org/1999/xlink">
	<desc>
			Created with Pixso.
	</desc>
	<defs/>
	<path id="Vector" d="M3.51 15.71L3.51 5.2L0.24 5.2L0.24 15.71L3.51 15.71ZM1.86 3.79C2.91 3.79 3.76 2.91 3.76 1.86C3.76 0.84 2.91 0 1.86 0C0.84 0 0 0.84 0 1.86C0 2.91 0.84 3.79 1.86 3.79ZM15.71 15.71L15.75 15.71L15.75 9.94C15.75 7.13 15.11 4.95 11.81 4.95C10.23 4.95 9.17 5.83 8.71 6.64L8.68 6.64L8.68 5.2L5.55 5.2L5.55 15.71L8.82 15.71L8.82 10.51C8.82 9.14 9.07 7.83 10.75 7.83C12.44 7.83 12.48 9.38 12.48 10.61L12.48 15.71L15.71 15.71Z" fill="#292F36" fill-opacity="1.000000" fill-rule="nonzero"/>
</svg>
