<svg width="164.000000" height="43.000000" viewBox="0 0 164 43" fill="none" xmlns="http://www.w3.org/2000/svg" xmlns:xlink="http://www.w3.org/1999/xlink">
	<desc>
			Created with Pixso.
	</desc>
	<defs>
		<clipPath id="clip2_183">
			<rect id="IMAGE" rx="0.000000" width="163.000000" height="42.000000" transform="translate(0.500000 0.500000)" fill="white" fill-opacity="0"/>
		</clipPath>
	</defs>
	<g clip-path="url(#clip2_183)">
		<path id="Vector" d="M34.79 42.77L7.97 42.77C3.57 42.77 0 39.2 0 34.79L0 7.97C0 3.57 3.57 0 7.97 0L34.79 0C39.2 0 42.77 3.57 42.77 7.97L42.77 34.79C42.77 39.2 39.2 42.77 34.79 42.77Z" fill="#292F36" fill-opacity="1.000000" fill-rule="nonzero"/>
		<path id="Vector" d="M29.09 21.78C29.85 22.73 30.24 23.85 30.24 25.11C30.24 26.96 29.62 28.41 28.39 29.44C27.15 30.47 25.38 31 23.08 31L13.03 31L13.03 9.39L22.84 9.39C25.05 9.39 26.74 9.87 27.94 10.83C29.14 11.79 29.74 13.16 29.74 14.92C29.74 16.23 29.39 17.31 28.7 18.18C28.01 19.05 27.1 19.61 25.98 19.88C27.3 20.19 28.33 20.82 29.09 21.78ZM18.25 18.23L21.68 18.23C23.5 18.23 24.4 17.45 24.4 15.9C24.4 14.35 23.47 13.58 21.62 13.58L18.25 13.58L18.25 18.23ZM24.89 24.38C24.89 23.6 24.63 23 24.13 22.56C23.62 22.13 22.89 21.91 21.96 21.91L18.27 21.91L18.27 26.76L21.99 26.76C23.92 26.75 24.89 25.97 24.89 24.38Z" fill="#FFFFFF" fill-opacity="1.000000" fill-rule="nonzero"/>
		<path id="Vector" d="M67.56 31L62.88 22.84L61.7 22.84L61.7 31L56.46 31L56.46 9.39L65.39 9.39C67.1 9.39 68.55 9.68 69.72 10.27C70.91 10.87 71.79 11.68 72.39 12.71C72.98 13.74 73.27 14.91 73.27 16.24C73.27 17.82 72.83 19.15 71.97 20.25C71.1 21.35 69.86 22.1 68.2 22.52L73.33 31.01L67.56 31.01L67.56 31ZM61.7 19.27L64.93 19.27C65.97 19.27 66.73 19.04 67.22 18.58C67.7 18.12 67.95 17.44 67.95 16.55C67.95 15.69 67.7 15.02 67.2 14.52C66.71 14.04 65.94 13.79 64.93 13.79L61.7 13.79L61.7 19.27Z" fill="#292F36" fill-opacity="1.000000" fill-rule="nonzero"/>
		<path id="Vector" d="M96.93 27.07L88.83 27.07L87.48 31.01L81.99 31.01L89.91 9.56L95.92 9.56L103.84 31.01L98.28 31.01L96.93 27.07ZM95.58 23.08L92.9 15.14L90.17 23.08L95.58 23.08Z" fill="#292F36" fill-opacity="1.000000" fill-rule="nonzero"/>
		<path id="Vector" d="M132.69 31L127.46 31L118.72 17.73L118.72 31L113.49 31L113.49 9.39L118.72 9.39L127.46 22.78L127.46 9.39L132.69 9.39L132.69 31Z" fill="#292F36" fill-opacity="1.000000" fill-rule="nonzero"/>
		<path id="Vector" d="M162.02 25.8C161.11 27.43 159.8 28.71 158.11 29.63C156.4 30.55 154.4 31.01 152.1 31.01L143.94 31.01L143.94 9.4L152.1 9.4C154.43 9.4 156.44 9.85 158.12 10.75C159.82 11.64 161.11 12.9 162.02 14.54C162.93 16.17 163.37 18.04 163.37 20.17C163.37 22.27 162.91 24.15 162.02 25.8ZM156.39 24.71C157.51 23.63 158.08 22.1 158.08 20.15C158.08 18.19 157.51 16.68 156.39 15.6C155.26 14.52 153.68 13.98 151.63 13.98L149.16 13.98L149.16 26.33L151.63 26.33C153.68 26.33 155.26 25.8 156.39 24.71Z" fill="#292F36" fill-opacity="1.000000" fill-rule="nonzero"/>
	</g>
</svg>
