<svg width="117.000000" height="48.000000" viewBox="0 0 117 48" fill="none" xmlns="http://www.w3.org/2000/svg" xmlns:xlink="http://www.w3.org/1999/xlink">
	<desc>
			Created with Pixso.
	</desc>
	<defs>
		<clipPath id="clip2_203">
			<rect id="IMAGE" rx="0.000000" width="116.000000" height="47.000000" transform="translate(0.500000 0.500000)" fill="white" fill-opacity="0"/>
		</clipPath>
	</defs>
	<g clip-path="url(#clip2_203)">
		<path id="Vector" d="M0 29.2L0 0L17.2 0L17.2 29.19L0 29.19L0 29.2ZM15.11 22.41L15.55 19.18L13.96 19.02L13.47 21.51C12.47 22.01 11.24 22.25 9.77 22.25C7.77 22.25 6.19 21.62 5.03 20.35C3.86 19.08 3.29 17.41 3.29 15.33C3.29 13.3 3.86 11.63 4.99 10.32C6.12 9 7.6 8.35 9.44 8.35C10.39 8.35 11.19 8.46 11.83 8.67C12.47 8.89 13.06 9.17 13.61 9.54L14.08 12L15.71 11.84L15.24 8.62C14.56 8.03 13.74 7.56 12.8 7.19C11.86 6.83 10.69 6.65 9.3 6.65C7.66 6.65 6.25 7.05 5.06 7.86C3.88 8.67 2.95 9.74 2.29 11.07C1.64 12.41 1.31 13.86 1.31 15.4C1.31 17.84 2.06 19.88 3.58 21.51C5.09 23.13 7.06 23.95 9.5 23.95C11.9 23.95 13.77 23.43 15.11 22.41Z" fill="#292F36" fill-opacity="1.000000" fill-rule="nonzero"/>
		<path id="Vector" d="M23.03 29.2L23.03 0L30.43 0L30.43 29.19L23.03 29.19L23.03 29.2ZM23.82 23.69L29.66 23.69L29.66 22.22L27.64 22.22L27.64 5.92L23.79 5.92L23.79 7.39L25.83 7.39L25.83 22.22L23.82 22.22L23.82 23.69Z" fill="#292F36" fill-opacity="1.000000" fill-rule="nonzero"/>
		<path id="Vector" d="M36.27 29.2L36.27 0L49.26 0L49.26 29.19L36.27 29.19L36.27 29.2ZM38.62 13.07L38.21 15.73L39.71 15.91L40.15 13.93C40.79 13.61 41.52 13.46 42.38 13.46C43.4 13.46 44.1 13.71 44.46 14.23C44.82 14.74 44.99 15.41 44.99 16.24L44.99 17.27C44.67 17.24 44.35 17.21 43.99 17.2C43.63 17.18 43.29 17.17 42.95 17.17C41.66 17.17 40.43 17.4 39.29 17.85C38.15 18.31 37.58 19.27 37.58 20.71C37.58 21.93 37.97 22.78 38.75 23.23C39.54 23.71 40.31 23.93 41.06 23.93C41.99 23.93 42.79 23.69 43.45 23.21C44.1 22.72 44.62 22.18 44.99 21.55L44.99 21.61C45.02 23.16 45.72 23.93 47.09 23.93C47.62 23.93 48.11 23.8 48.59 23.55L48.56 22.36C48.33 22.46 48.07 22.52 47.79 22.52C47.13 22.52 46.8 22.11 46.8 21.28L46.8 15.81C46.8 13.24 45.43 11.96 42.69 11.96C41.93 11.96 41.22 12.04 40.55 12.21C39.86 12.4 39.22 12.69 38.62 13.07ZM44.97 19.38C44.9 20.32 44.52 21.08 43.82 21.62C43.12 22.18 42.38 22.45 41.58 22.45C41.08 22.45 40.59 22.31 40.14 22.03C39.66 21.76 39.44 21.25 39.44 20.51C39.44 19.61 39.79 19.04 40.48 18.77C41.18 18.49 41.95 18.37 42.82 18.37C43.2 18.37 43.58 18.38 43.93 18.42C44.29 18.45 44.65 18.48 44.96 18.49L44.96 19.38L44.97 19.38Z" fill="#292F36" fill-opacity="1.000000" fill-rule="nonzero"/>
		<path id="Vector" d="M55.11 29.2L55.11 0L66.91 0L66.91 29.19L55.11 29.19L55.11 29.2ZM65.67 20.36C65.67 19.45 65.43 18.78 64.94 18.34C64.46 17.9 63.87 17.6 63.16 17.42C62.45 17.25 61.75 17.11 61.05 17C60.35 16.88 59.75 16.7 59.26 16.45C58.78 16.21 58.53 15.78 58.53 15.17C58.53 14.58 58.76 14.16 59.23 13.87C59.71 13.58 60.29 13.46 61.02 13.46C61.86 13.46 62.65 13.64 63.37 14.03L63.66 15.88L65.16 15.7L64.87 13.01C64.39 12.71 63.8 12.47 63.1 12.27C62.4 12.07 61.66 11.96 60.86 11.96C59.81 11.96 58.83 12.21 57.94 12.71C57.04 13.21 56.59 14.07 56.59 15.3C56.59 16.2 56.84 16.85 57.32 17.27C57.81 17.7 58.41 17.98 59.13 18.15C59.86 18.32 60.58 18.47 61.29 18.59C62 18.71 62.6 18.91 63.09 19.17C63.57 19.42 63.82 19.87 63.82 20.51C63.82 21.16 63.5 21.65 62.87 21.96C62.25 22.28 61.53 22.43 60.72 22.43C59.81 22.43 58.95 22.25 58.16 21.86L58.24 20.34L56.79 20.18L56.44 22.79C56.94 23.12 57.59 23.39 58.39 23.61C59.19 23.82 59.99 23.93 60.8 23.93C62.19 23.93 63.35 23.62 64.27 22.98C65.2 22.36 65.67 21.48 65.67 20.36Z" fill="#292F36" fill-opacity="1.000000" fill-rule="nonzero"/>
		<path id="Vector" d="M72.75 29.2L72.75 0L84.56 0L84.56 29.19L72.75 29.19L72.75 29.2ZM83.32 20.36C83.32 19.45 83.07 18.78 82.59 18.34C82.1 17.9 81.52 17.6 80.8 17.42C80.09 17.25 79.39 17.11 78.69 17C77.99 16.88 77.39 16.7 76.91 16.45C76.42 16.21 76.18 15.78 76.18 15.17C76.18 14.58 76.41 14.16 76.88 13.87C77.35 13.58 77.93 13.46 78.66 13.46C79.5 13.46 80.29 13.64 81.02 14.03L81.3 15.88L82.8 15.7L82.52 13.01C82.03 12.71 81.45 12.47 80.75 12.27C80.05 12.07 79.3 11.96 78.5 11.96C77.45 11.96 76.48 12.21 75.58 12.71C74.68 13.21 74.24 14.07 74.24 15.3C74.24 16.2 74.48 16.85 74.97 17.27C75.45 17.7 76.05 17.98 76.78 18.15C77.51 18.32 78.22 18.47 78.93 18.59C79.65 18.71 80.25 18.91 80.73 19.17C81.22 19.42 81.46 19.87 81.46 20.51C81.46 21.16 81.15 21.65 80.52 21.96C79.89 22.28 79.18 22.43 78.36 22.43C77.45 22.43 76.59 22.25 75.81 21.86L75.88 20.34L74.44 20.18L74.08 22.79C74.58 23.12 75.24 23.39 76.04 23.61C76.83 23.82 77.63 23.93 78.45 23.93C79.83 23.93 80.99 23.62 81.92 22.98C82.84 22.36 83.32 21.48 83.32 20.36Z" fill="#292F36" fill-opacity="1.000000" fill-rule="nonzero"/>
		<path id="Vector" d="M90.4 29.2L90.4 0L98.18 0L98.18 29.19L90.4 29.19L90.4 29.2ZM91.54 23.69L97.38 23.69L97.38 22.22L95.36 22.22L95.36 12.2L91.49 12.2L91.49 13.67L93.56 13.67L93.56 22.22L91.55 22.22L91.55 23.69L91.54 23.69ZM93.36 6.88L93.36 9.23L95.33 9.23L95.33 6.88L93.36 6.88Z" fill="#292F36" fill-opacity="1.000000" fill-rule="nonzero"/>
		<path id="Vector" d="M104.01 29.2L104.01 0L116.45 0L116.45 29.19L104.01 29.19L104.01 29.2ZM115.33 19.82L113.78 19.48C113.44 21.42 112.39 22.39 110.68 22.39C109.54 22.39 108.67 22.01 108.07 21.24C107.47 20.46 107.17 19.38 107.17 18.01C107.17 16.77 107.44 15.71 107.97 14.83C108.5 13.94 109.38 13.51 110.61 13.51C111.55 13.51 112.38 13.73 113.06 14.16L113.51 16.1L115.01 15.91L114.56 13.14C113.98 12.7 113.36 12.39 112.72 12.21C112.08 12.04 111.38 11.96 110.62 11.96C108.84 11.96 107.48 12.59 106.6 13.84C105.7 15.1 105.26 16.52 105.26 18.11C105.26 19.95 105.73 21.39 106.68 22.41C107.63 23.43 108.9 23.95 110.48 23.95C112.06 23.95 113.24 23.51 113.98 22.63C114.72 21.75 115.18 20.82 115.33 19.82Z" fill="#292F36" fill-opacity="1.000000" fill-rule="nonzero"/>
		<path id="Vector" d="M7.43 45.15C7.1 45.74 6.62 46.22 5.99 46.54C5.35 46.87 4.59 47.04 3.71 47.04L1.15 47.04L1.15 38.99L3.71 38.99C4.59 38.99 5.36 39.15 5.99 39.48C6.62 39.81 7.1 40.26 7.43 40.88C7.76 41.49 7.92 42.19 7.92 43.02C7.92 43.83 7.76 44.55 7.43 45.15ZM6.02 45.3C6.58 44.76 6.85 44 6.85 43.02C6.85 42.03 6.58 41.28 6.02 40.73C5.46 40.19 4.66 39.92 3.61 39.92L2.16 39.92L2.16 46.12L3.61 46.12C4.66 46.12 5.46 45.84 6.02 45.3Z" fill="#292F36" fill-opacity="1.000000" fill-rule="nonzero"/>
		<path id="Vector" d="M13.21 39.84L13.21 42.59L16.27 42.59L16.27 43.39L13.21 43.39L13.21 46.2L16.61 46.2L16.61 47.04L12.17 47.04L12.17 38.99L16.61 38.99L16.61 39.84L13.21 39.84Z" fill="#292F36" fill-opacity="1.000000" fill-rule="nonzero"/>
		<path id="Vector" d="M25.63 46.02C25.45 46.34 25.18 46.62 24.8 46.82C24.43 47.02 23.98 47.13 23.42 47.13C22.89 47.13 22.41 47.03 21.99 46.84C21.58 46.64 21.25 46.39 20.99 46.04C20.75 45.7 20.61 45.32 20.56 44.89L21.68 44.89C21.71 45.12 21.78 45.35 21.91 45.56C22.03 45.77 22.23 45.96 22.48 46.1C22.72 46.24 23.02 46.32 23.38 46.32C23.83 46.32 24.19 46.2 24.43 45.94C24.68 45.69 24.8 45.39 24.8 45C24.8 44.67 24.72 44.4 24.55 44.2C24.38 44 24.16 43.83 23.92 43.72C23.68 43.6 23.32 43.48 22.89 43.33C22.38 43.16 21.98 43 21.66 42.86C21.35 42.72 21.09 42.49 20.88 42.19C20.66 41.89 20.55 41.51 20.55 41.02C20.55 40.61 20.65 40.23 20.85 39.91C21.05 39.59 21.34 39.34 21.72 39.16C22.09 38.99 22.55 38.91 23.05 38.91C23.83 38.91 24.48 39.09 24.93 39.48C25.4 39.86 25.66 40.35 25.75 40.95L24.63 40.95C24.58 40.63 24.4 40.35 24.15 40.11C23.88 39.86 23.52 39.74 23.06 39.74C22.65 39.74 22.31 39.85 22.06 40.06C21.81 40.28 21.69 40.59 21.69 40.98C21.69 41.29 21.78 41.55 21.94 41.73C22.11 41.93 22.31 42.08 22.55 42.19C22.79 42.3 23.13 42.42 23.55 42.56C24.06 42.73 24.48 42.89 24.8 43.05C25.12 43.2 25.39 43.43 25.6 43.73C25.82 44.03 25.93 44.45 25.93 44.96C25.9 45.33 25.82 45.69 25.63 46.02Z" fill="#292F36" fill-opacity="1.000000" fill-rule="nonzero"/>
		<path id="Vector" d="M31.2 38.99L31.2 47.04L30.16 47.04L30.16 38.99L31.2 38.99Z" fill="#292F36" fill-opacity="1.000000" fill-rule="nonzero"/>
		<path id="Vector" d="M41.73 39.61C42.38 40.08 42.8 40.71 43.02 41.51L41.92 41.51C41.73 41.02 41.41 40.62 40.96 40.33C40.52 40.04 39.99 39.89 39.38 39.89C38.84 39.89 38.34 40.02 37.91 40.28C37.48 40.53 37.14 40.89 36.88 41.36C36.64 41.83 36.51 42.39 36.51 43.03C36.51 43.69 36.64 44.26 36.88 44.73C37.12 45.2 37.48 45.57 37.92 45.83C38.37 46.09 38.88 46.22 39.46 46.22C39.96 46.22 40.41 46.1 40.82 45.9C41.23 45.69 41.56 45.37 41.83 44.97C42.1 44.57 42.25 44.09 42.3 43.55L39.14 43.55L39.14 42.78L43.18 42.78L43.18 43.73C43.1 44.37 42.9 44.95 42.58 45.47C42.25 46 41.81 46.4 41.25 46.7C40.69 47 40.06 47.16 39.35 47.16C38.58 47.16 37.89 46.99 37.29 46.64C36.69 46.3 36.24 45.82 35.91 45.19C35.58 44.57 35.41 43.86 35.41 43.06C35.41 42.26 35.58 41.55 35.91 40.93C36.24 40.32 36.71 39.82 37.29 39.48C37.88 39.14 38.56 38.95 39.34 38.95C40.31 38.92 41.09 39.15 41.73 39.61Z" fill="#292F36" fill-opacity="1.000000" fill-rule="nonzero"/>
		<path id="Vector" d="M53.71 47.04L52.67 47.04L48.49 40.68L48.49 47.04L47.44 47.04L47.44 38.99L48.49 38.99L52.67 45.36L52.67 38.99L53.71 38.99L53.71 47.04Z" fill="#292F36" fill-opacity="1.000000" fill-rule="nonzero"/>
		<path id="Vector" d="M68.73 46.02C68.54 46.34 68.27 46.62 67.9 46.82C67.53 47.02 67.07 47.13 66.51 47.13C65.99 47.13 65.5 47.03 65.09 46.84C64.67 46.64 64.34 46.39 64.09 46.04C63.85 45.7 63.7 45.32 63.66 44.89L64.77 44.89C64.8 45.12 64.87 45.35 65 45.56C65.13 45.77 65.33 45.96 65.57 46.1C65.81 46.24 66.11 46.32 66.47 46.32C66.93 46.32 67.29 46.2 67.53 45.94C67.77 45.69 67.9 45.39 67.9 45C67.9 44.67 67.81 44.4 67.64 44.2C67.47 44 67.26 43.83 67.01 43.72C66.77 43.6 66.41 43.48 65.99 43.33C65.47 43.16 65.07 43 64.76 42.86C64.44 42.72 64.19 42.49 63.97 42.19C63.76 41.89 63.65 41.51 63.65 41.02C63.65 40.61 63.75 40.23 63.95 39.91C64.14 39.59 64.43 39.34 64.82 39.16C65.19 38.99 65.64 38.91 66.14 38.91C66.93 38.91 67.57 39.09 68.03 39.48C68.5 39.86 68.76 40.35 68.84 40.95L67.73 40.95C67.67 40.63 67.5 40.35 67.24 40.11C66.97 39.86 66.61 39.74 66.16 39.74C65.74 39.74 65.4 39.85 65.16 40.06C64.9 40.28 64.79 40.59 64.79 40.98C64.79 41.29 64.87 41.55 65.03 41.73C65.2 41.93 65.4 42.08 65.64 42.19C65.89 42.3 66.23 42.42 66.64 42.56C67.16 42.73 67.57 42.89 67.9 43.05C68.21 43.2 68.48 43.43 68.7 43.73C68.91 44.03 69.03 44.45 69.03 44.96C69 45.33 68.91 45.69 68.73 46.02Z" fill="#292F36" fill-opacity="1.000000" fill-rule="nonzero"/>
		<path id="Vector" d="M78.19 38.99L78.19 39.84L75.92 39.84L75.92 47.04L74.87 47.04L74.87 39.84L72.6 39.84L72.6 38.99L78.19 38.99Z" fill="#292F36" fill-opacity="1.000000" fill-rule="nonzero"/>
		<path id="Vector" d="M83.04 38.99L83.04 43.82C83.04 44.6 83.22 45.19 83.57 45.57C83.93 45.94 84.4 46.14 85.03 46.14C85.64 46.14 86.11 45.96 86.46 45.57C86.8 45.19 86.97 44.62 86.97 43.83L86.97 39.01L88.01 39.01L88.01 43.83C88.01 44.93 87.74 45.76 87.2 46.3C86.66 46.86 85.93 47.13 85.01 47.13C84.11 47.13 83.39 46.86 82.84 46.3C82.3 45.74 82.03 44.93 82.03 43.83L82.03 39.01L83.04 39.01L83.04 38.99Z" fill="#292F36" fill-opacity="1.000000" fill-rule="nonzero"/>
		<path id="Vector" d="M98.76 45.15C98.43 45.74 97.95 46.22 97.32 46.54C96.68 46.87 95.92 47.04 95.03 47.04L92.48 47.04L92.48 38.99L95.03 38.99C95.92 38.99 96.69 39.15 97.32 39.48C97.95 39.81 98.43 40.26 98.76 40.88C99.09 41.49 99.25 42.19 99.25 43.02C99.25 43.83 99.09 44.55 98.76 45.15ZM97.36 45.3C97.92 44.76 98.19 44 98.19 43.02C98.19 42.03 97.92 41.28 97.36 40.73C96.8 40.19 96.01 39.92 94.95 39.92L93.51 39.92L93.51 46.12L94.95 46.12C95.99 46.12 96.8 45.84 97.36 45.3Z" fill="#292F36" fill-opacity="1.000000" fill-rule="nonzero"/>
		<path id="Vector" d="M104.56 38.99L104.56 47.04L103.51 47.04L103.51 38.99L104.56 38.99Z" fill="#292F36" fill-opacity="1.000000" fill-rule="nonzero"/>
		<path id="Vector" d="M114.78 39.42C115.38 39.78 115.85 40.26 116.19 40.89C116.53 41.52 116.7 42.23 116.7 43.02C116.7 43.8 116.53 44.52 116.19 45.15C115.85 45.77 115.38 46.26 114.78 46.62C114.18 46.97 113.51 47.14 112.76 47.14C112.02 47.14 111.34 46.97 110.74 46.62C110.14 46.26 109.65 45.77 109.31 45.15C108.97 44.52 108.8 43.8 108.8 43.02C108.8 42.23 108.97 41.52 109.31 40.89C109.65 40.26 110.12 39.78 110.74 39.42C111.35 39.06 112.02 38.89 112.76 38.89C113.51 38.89 114.18 39.06 114.78 39.42ZM111.27 40.25C110.82 40.51 110.48 40.86 110.24 41.35C110 41.82 109.87 42.38 109.87 43.02C109.87 43.65 110 44.2 110.24 44.69C110.48 45.17 110.82 45.53 111.27 45.79C111.71 46.04 112.19 46.17 112.75 46.17C113.29 46.17 113.79 46.04 114.23 45.79C114.68 45.53 115.02 45.16 115.26 44.69C115.51 44.22 115.63 43.66 115.63 43.03C115.63 42.39 115.51 41.83 115.26 41.36C115.02 40.89 114.68 40.52 114.23 40.26C113.79 40.01 113.31 39.88 112.75 39.88C112.21 39.86 111.71 39.99 111.27 40.25Z" fill="#292F36" fill-opacity="1.000000" fill-rule="nonzero"/>
	</g>
</svg>
