<svg width="145.000000" height="45.000000" viewBox="0 0 145 45" fill="none" xmlns="http://www.w3.org/2000/svg" xmlns:xlink="http://www.w3.org/1999/xlink">
	<desc>
			Created with Pixso.
	</desc>
	<defs>
		<clipPath id="clip2_190">
			<rect id="IMAGE" rx="0.000000" width="144.000000" height="44.000000" transform="translate(0.500000 0.500000)" fill="white" fill-opacity="0"/>
		</clipPath>
	</defs>
	<g clip-path="url(#clip2_190)">
		<path id="Vector" d="M20.24 8.82L21.31 8.6C21.58 8.6 21.81 8.65 21.96 8.77C22.12 8.88 22.21 9 22.21 9.1C22.21 9.19 22.18 9.35 22.13 9.54C22.09 9.72 21.69 11.64 20.95 15.25C20.21 18.86 19.67 21.56 19.32 23.33C20.98 21.07 22.92 18.3 25.13 15C27.35 11.71 28.64 9.52 29.02 8.44C29.13 8.1 29.29 7.84 29.47 7.65C29.66 7.47 29.83 7.35 29.97 7.33C30.11 7.3 30.34 7.27 30.64 7.27C30.94 7.27 31.3 7.34 31.71 7.47C32.13 7.6 32.34 7.81 32.34 8.12C32.34 8.7 31.48 10.37 29.79 13.11C28.09 15.85 26.13 18.76 23.93 21.84C21.74 24.93 19.91 27.37 18.44 29.16C18.18 29.48 17.85 29.65 17.48 29.65C17.11 29.65 16.71 29.58 16.3 29.45C15.88 29.32 15.67 29.09 15.67 28.75C15.67 27.68 16.61 22.51 18.49 13.28C16.88 15.36 14.93 18.27 12.63 22C10.23 25.85 8.87 28.25 8.56 29.16C8.39 29.72 8.19 30.05 7.96 30.14C7.8 30.21 7.63 30.24 7.46 30.24L6.3 30.36C6.08 30.36 5.88 30.31 5.68 30.18C5.49 30.05 5.39 29.92 5.39 29.78C5.39 29.39 5.93 28.22 7 26.28C8.07 24.34 9.34 22.23 10.79 19.94C12.23 17.66 13.73 15.45 15.3 13.29C16.87 11.14 18.08 9.68 18.94 8.95C19.11 8.8 19.31 8.72 19.54 8.72L20.24 8.82Z" fill="#292F36" fill-opacity="1.000000" fill-rule="nonzero"/>
		<path id="Vector" d="M37.39 18.5C38.14 18.5 38.51 18.76 38.51 19.26C38.51 19.53 38.45 19.73 38.32 19.86C38.19 19.99 37.92 20.4 37.51 21.13C37.09 21.84 36.64 22.76 36.14 23.88C35.64 25 35.31 25.95 35.17 26.74C35.14 26.84 35.12 26.97 35.12 27.15C35.12 27.7 35.27 27.95 35.57 27.95C35.87 27.95 36.21 27.81 36.61 27.54C37.01 27.25 37.37 26.97 37.68 26.64C37.99 26.32 38.29 26 38.59 25.67C38.89 25.34 39.06 25.14 39.12 25.1C39.18 25.05 39.26 25.03 39.38 25.03C39.56 25.03 39.68 25.17 39.72 25.45C39.76 25.74 39.78 26.03 39.78 26.34C39.78 26.65 39.75 26.85 39.69 26.97C39.41 27.52 38.79 28.19 37.82 28.98C36.87 29.76 35.98 30.15 35.2 30.15C34.41 30.15 33.83 29.91 33.47 29.44C33.11 28.97 32.91 28.42 32.91 27.85C32.91 27.27 33.01 26.77 33.21 26.32C32.4 27.38 31.47 28.27 30.43 29.01C29.37 29.74 28.53 30.11 27.86 30.11C27.19 30.11 26.66 29.91 26.23 29.51C25.69 29.01 25.43 28.32 25.43 27.44C25.43 26.55 25.63 25.67 26.03 24.77C26.43 23.88 26.95 23.06 27.59 22.33C28.23 21.59 28.94 20.91 29.71 20.32C31.33 19.04 32.83 18.42 34.2 18.42C34.73 18.42 35.15 18.5 35.48 18.67C35.81 18.84 36.02 19.07 36.11 19.33C36.34 18.97 36.54 18.76 36.71 18.66C36.84 18.54 37.08 18.5 37.39 18.5ZM35.45 20.13C33.78 20.13 32.06 21.06 30.27 22.91C29.64 23.58 29.06 24.37 28.52 25.3C27.97 26.22 27.72 26.85 27.72 27.2C27.72 27.54 27.82 27.71 28.02 27.71C28.29 27.71 29.04 27.17 30.3 26.1C31.56 25.03 32.38 24.23 32.78 23.71C33.24 23.14 34.13 21.94 35.45 20.13Z" fill="#292F36" fill-opacity="1.000000" fill-rule="nonzero"/>
		<path id="Vector" d="M48.5 10.77L49.1 10.91C49.19 10.91 49.27 10.95 49.33 11.04C49.4 11.12 49.43 11.21 49.43 11.28C49.43 11.35 49.33 11.56 49.11 11.91C48.9 12.25 48.67 12.64 48.39 13.06C48.1 13.49 47.96 13.73 47.94 13.78C48.7 13.72 49.24 13.69 49.56 13.69C49.87 13.69 50.08 13.72 50.21 13.76C50.33 13.81 50.47 13.93 50.61 14.13C50.77 14.33 50.9 14.49 51.03 14.59C51.16 14.69 51.21 14.85 51.21 15.05C51.21 15.25 51.08 15.43 50.84 15.56C50.6 15.7 50.33 15.79 50.04 15.82C47.77 16.05 46.53 16.16 46.3 16.18C45.52 17.39 44.4 19.27 42.99 21.83C41.58 24.38 40.82 26 40.73 26.64C40.69 26.94 40.68 27.17 40.68 27.35C40.68 27.74 40.88 27.92 41.28 27.92C41.68 27.92 42.12 27.77 42.6 27.47C43.09 27.15 43.55 26.82 43.95 26.47C45.05 25.5 45.63 25 45.7 25C45.96 25 46.09 25.44 46.09 26.31C46.09 26.78 45.87 27.21 45.43 27.59C44.45 28.44 43.62 29.08 42.95 29.51C42.28 29.94 41.61 30.15 40.92 30.15C40.78 30.15 40.63 30.14 40.51 30.11C39.72 29.96 39.15 29.68 38.79 29.25C38.42 28.82 38.25 28.25 38.25 27.54C38.25 26.82 38.47 25.94 38.89 24.91C39.32 23.88 39.85 22.78 40.49 21.63C41.55 19.73 42.6 17.96 43.65 16.3L43.09 16.38C41.96 16.5 41.31 16.56 41.12 16.56L40.99 16.56C40.71 16.56 40.43 16.5 40.18 16.39C39.92 16.28 39.78 16.13 39.78 15.98C39.78 15.8 39.85 15.65 39.99 15.49C40.14 15.33 40.22 15.2 40.25 15.12C40.32 14.9 40.58 14.66 41.02 14.41C41.46 14.15 41.79 14.01 42.02 13.99C42.25 13.98 42.46 13.96 42.68 13.95C42.89 13.93 43.12 13.93 43.38 13.92C43.63 13.91 43.83 13.91 43.97 13.89L45.29 13.83C46.1 12.61 46.67 11.81 46.97 11.46C47.29 11.11 47.46 10.92 47.5 10.89C47.54 10.87 47.64 10.84 47.8 10.84L48.5 10.77Z" fill="#292F36" fill-opacity="1.000000" fill-rule="nonzero"/>
		<path id="Vector" d="M57.28 25.03C57.46 25.03 57.58 25.17 57.62 25.45C57.66 25.74 57.68 26.02 57.68 26.34C57.68 26.65 57.65 26.85 57.59 26.97C57.31 27.51 56.69 28.18 55.74 28.97C54.78 29.75 53.87 30.15 53.01 30.15C52.48 30.15 52 29.99 51.54 29.68C51.1 29.37 50.87 28.81 50.87 28.02C50.87 27.24 51.08 26.45 51.5 25.7C49.07 28.74 47.19 30.25 45.8 30.25C45.26 30.25 44.82 30.05 44.47 29.66C44.13 29.28 43.97 28.88 43.97 28.45C43.97 28.04 44.03 27.61 44.15 27.17C44.26 26.72 44.39 26.32 44.52 25.97C44.65 25.61 44.85 25.18 45.1 24.67C45.36 24.15 45.56 23.78 45.67 23.54C45.79 23.3 46 22.96 46.29 22.48C46.57 22.01 46.93 21.37 47.39 20.57C47.84 19.77 48.21 19.17 48.51 18.79C48.81 18.4 49.1 18.2 49.38 18.2C49.67 18.2 49.91 18.32 50.13 18.54C50.34 18.77 50.46 18.97 50.46 19.12C50.46 19.26 50.13 19.92 49.47 21.09C47.54 24.58 46.57 26.61 46.57 27.2C46.57 27.34 46.63 27.41 46.73 27.41C47.2 27.41 48.37 26.4 50.23 24.37C52.08 22.34 53.17 21.04 53.47 20.47C53.77 19.9 54.04 19.42 54.32 19.03C54.6 18.64 54.81 18.4 54.95 18.32C55.37 18.05 55.91 17.9 56.58 17.87C56.69 17.87 56.76 17.87 56.82 17.89C56.88 17.9 56.95 17.99 57.02 18.13C57.09 18.27 57.14 18.4 57.14 18.5C57.05 18.77 56.66 19.5 55.97 20.69C55.28 21.87 54.89 22.54 54.82 22.68C53.67 25.07 53.1 26.62 53.1 27.34C53.1 27.75 53.25 27.95 53.57 27.95C54.14 27.88 54.82 27.42 55.62 26.6C55.92 26.3 56.21 25.98 56.49 25.67C56.78 25.35 56.96 25.17 57.02 25.13C57.09 25.05 57.18 25.03 57.28 25.03Z" fill="#292F36" fill-opacity="1.000000" fill-rule="nonzero"/>
		<path id="Vector" d="M61.52 21.64C63.82 19.03 65.79 17.72 67.4 17.72C67.8 17.72 68.13 17.83 68.38 18.07C68.64 18.32 68.77 18.62 68.77 19C68.77 19.39 68.5 20.02 67.96 20.91C67.41 21.8 66.91 22.56 66.46 23.17C66.21 23.48 65.94 23.64 65.63 23.64C65.33 23.64 65.09 23.53 64.92 23.3C64.74 23.07 64.66 22.81 64.66 22.51C64.66 21.84 65.02 21.07 65.74 20.23L65.72 20.2C65.39 20.23 64.6 20.87 63.32 22.1C62.05 23.34 60.96 24.45 60.06 25.43C59.18 26.41 58.21 27.6 57.15 29.01C56.85 29.42 56.59 29.64 56.38 29.64C56.17 29.64 55.89 29.56 55.55 29.44C55.21 29.31 54.99 29.21 54.92 29.15C54.85 29.09 54.81 28.99 54.81 28.85C54.81 28.72 54.85 28.55 54.92 28.38C54.99 28.19 55.15 27.94 55.35 27.61C55.55 27.28 55.88 26.74 56.31 26C56.74 25.25 57.39 24.13 58.29 22.63C59.19 21.13 59.72 20.21 59.91 19.9C60.28 19.26 60.58 18.79 60.82 18.5C61.26 17.95 62 17.67 63.05 17.67C63.27 17.67 63.4 17.82 63.4 18.12C63.4 18.57 62.97 19.44 62.13 20.7L61.52 21.64Z" fill="#292F36" fill-opacity="1.000000" fill-rule="nonzero"/>
		<path id="Vector" d="M77.26 18.67C77.26 19.32 77.01 19.89 76.48 20.37C75.95 20.86 75.36 21.1 74.69 21.1C74.48 21.1 74.34 21.04 74.27 20.94C74.19 20.84 74.17 20.7 74.17 20.54C74.17 20.39 74.18 20.22 74.22 20.06C73.87 20.17 73.48 20.36 73.05 20.6C72.62 20.84 72.1 21.2 71.47 21.69C70.84 22.17 70.53 22.51 70.53 22.76C70.53 22.83 70.64 22.87 70.87 22.87C71.1 22.87 71.45 22.78 71.92 22.63C72.4 22.47 72.74 22.38 72.92 22.38C73.11 22.38 73.24 22.4 73.29 22.41C73.42 22.48 73.55 22.63 73.71 22.86C73.85 23.08 73.92 23.27 73.92 23.4C73.92 23.53 73.79 23.7 73.54 23.91C73.28 24.13 73 24.28 72.68 24.4C72.35 24.51 72.14 24.6 72.04 24.65C69.98 25.81 68.96 26.6 68.96 27.02C68.96 27.78 69.6 28.17 70.9 28.17C71.72 28.17 72.57 27.91 73.39 27.38C74.11 26.94 74.75 26.48 75.32 26.01C75.89 25.55 76.25 25.27 76.41 25.15C76.56 25.04 76.68 25 76.75 25C77.01 25 77.13 25.28 77.13 25.85C77.13 26.42 77.11 26.8 77.03 26.97C76.96 27.15 76.78 27.37 76.45 27.64C74.37 29.34 72.38 30.19 70.53 30.19C69.53 30.19 68.74 30.05 68.14 29.78C67.04 29.28 66.5 28.52 66.5 27.5C66.5 26.15 67.43 25.13 69.3 24.44C68.93 24.27 68.68 24.07 68.58 23.8C68.47 23.54 68.43 23.13 68.43 22.56C68.43 21.99 68.7 21.39 69.23 20.74C69.75 20.1 70.41 19.57 71.18 19.17C72.9 18.25 74.44 17.79 75.78 17.79C76.11 17.79 76.42 17.86 76.76 18.02C77.11 18.17 77.26 18.39 77.26 18.67Z" fill="#292F36" fill-opacity="1.000000" fill-rule="nonzero"/>
		<path id="Vector" d="M110.58 8.74L110.77 8.74C110.82 8.74 110.87 8.74 110.88 8.75C110.89 8.77 110.91 8.77 110.94 8.78C110.97 8.78 110.98 8.8 111.01 8.82C111.05 8.87 111.12 8.91 111.21 8.95C111.32 9.04 111.38 9.14 111.38 9.25C111.38 9.37 111.27 9.61 111.04 9.98C110.81 10.35 110.22 11.25 109.27 12.71C107.08 16.05 105.13 19.16 103.4 22.01C100.42 26.98 98.9 29.48 98.87 29.51C98.85 29.54 98.83 29.56 98.82 29.59C98.8 29.65 98.77 29.68 98.7 29.68L98.5 29.64L98.1 29.74L97.88 29.69L97.63 29.74L97.55 29.74L96.73 29.85C96.25 29.85 96.01 29.68 96.01 29.35C96.01 29.21 96.05 29.04 96.13 28.84C96.43 28.12 97.96 25.54 100.7 21.06C98.9 21.1 97.12 21.13 95.36 21.13L92.22 21.11C91.71 21.94 91 23.11 90.1 24.64C88.15 27.97 87.13 29.64 87 29.66C86.87 29.69 86.77 29.72 86.68 29.72C86.6 29.72 86.53 29.68 86.47 29.58C86.4 29.49 86.36 29.44 86.33 29.44C86.3 29.44 86.26 29.45 86.17 29.49C86.1 29.54 85.98 29.55 85.83 29.55L85.49 29.54L85.36 29.45C85.34 29.45 85.33 29.47 85.31 29.49C85.3 29.52 85.26 29.54 85.2 29.54C84.79 29.54 84.57 29.36 84.57 29.01C84.57 28.78 84.66 28.47 84.81 28.08C84.99 27.7 85.2 27.28 85.47 26.84C85.74 26.4 86.43 25.33 87.56 23.66C88.67 21.99 89.23 21.14 89.23 21.13C89.04 21.11 88.83 21.11 88.58 21.1C88.08 21.1 87.74 21.09 87.53 21.04C86.97 20.94 86.58 20.49 86.38 19.67C86.27 19.27 86.23 19.02 86.24 18.89C86.24 18.63 86.36 18.49 86.58 18.49L86.97 18.59C87.17 18.6 87.63 18.62 88.37 18.66C89.11 18.7 89.64 18.72 89.97 18.72L90.8 18.69C92.07 16.7 93.58 14.45 95.35 11.94C94.06 12.99 92.64 13.52 91.07 13.52C90.32 13.52 89.68 13.35 89.15 12.99C88.61 12.64 88.35 12.18 88.35 11.64C88.35 11.09 88.55 10.67 88.97 10.34C89.38 10.02 89.77 9.87 90.14 9.87C90.51 9.87 90.7 9.92 90.7 10.04C90.7 10.08 90.64 10.12 90.54 10.17C90.44 10.22 90.38 10.27 90.38 10.31C90.38 10.47 90.55 10.61 90.9 10.72C91.24 10.84 91.62 10.91 92.05 10.91C92.48 10.91 92.99 10.78 93.62 10.54C94.25 10.29 94.89 9.97 95.56 9.58C96.51 9.04 97.25 8.58 97.79 8.22C98.1 8.07 98.39 8 98.67 8C98.96 8 99.15 8.02 99.27 8.1C99.4 8.15 99.49 8.22 99.55 8.28C99.6 8.34 99.67 8.42 99.73 8.52C99.8 8.62 99.86 8.71 99.93 8.75C99.99 8.81 100.03 8.87 100.03 8.94C100.03 9.01 99.99 9.11 99.92 9.27C99.85 9.41 99.47 10.01 98.8 11.05C98.13 12.09 97.26 13.42 96.21 15.03C95.15 16.65 94.38 17.83 93.89 18.6C96.51 18.6 99.32 18.56 102.34 18.46C106.03 12.65 107.97 9.61 108.17 9.32C108.37 9.04 108.55 8.85 108.72 8.77C108.9 8.68 109.1 8.64 109.34 8.64L110.58 8.74Z" fill="#292F36" fill-opacity="1.000000" fill-rule="nonzero"/>
		<path id="Vector" d="M115.35 18.47C115.65 18.47 115.95 18.6 116.25 18.87C116.56 19.14 116.7 19.54 116.7 20.09C116.7 20.63 116.52 21.33 116.13 22.2C115.75 23.06 115.23 23.94 114.56 24.84C113.91 25.73 113.16 26.57 112.38 27.35C111.58 28.14 110.72 28.78 109.81 29.28C108.88 29.78 108.05 30.04 107.3 30.04C106.54 30.04 105.94 29.79 105.48 29.32C105.03 28.85 104.8 28.19 104.8 27.35C104.8 26.51 105.01 25.57 105.43 24.55C105.84 23.53 106.37 22.63 107.03 21.84C107.68 21.06 108.38 20.36 109.15 19.73C110.74 18.45 112.14 17.82 113.34 17.82C113.88 17.82 114.28 17.95 114.55 18.22C114.65 18.3 114.69 18.39 114.69 18.45L114.69 18.53C114.85 18.47 115.06 18.47 115.35 18.47ZM113.88 20.41L113.78 20.41C113.44 20.41 113.26 20.17 113.26 19.67C112.55 19.9 111.81 20.32 111.02 20.9C110.24 21.49 109.54 22.18 108.92 22.98C107.67 24.58 107.04 25.94 107.03 27.04C107.03 27.58 107.23 27.85 107.63 27.85C108.03 27.85 108.62 27.58 109.41 27.07C110.19 26.55 110.98 25.8 111.77 24.81C112.54 23.84 113.12 22.98 113.51 22.27C113.89 21.56 114.09 21.07 114.09 20.8C114.08 20.54 114.01 20.41 113.88 20.41Z" fill="#292F36" fill-opacity="1.000000" fill-rule="nonzero"/>
		<path id="Vector" d="M116.39 29.71L115.68 29.68L115.42 29.68C115.32 29.65 115.22 29.59 115.11 29.51C114.99 29.42 114.91 29.35 114.85 29.32C114.79 29.29 114.76 29.21 114.76 29.11C114.76 29.01 114.81 28.82 114.88 28.58C116.78 24.4 118.62 21.04 120.4 18.54C120.6 18.27 120.92 18.06 121.34 17.92C121.77 17.77 122.2 17.7 122.61 17.7C122.86 17.7 122.98 17.89 122.98 18.27C122.98 18.39 122.94 18.53 122.87 18.7C122.8 18.89 122.6 19.17 122.29 19.59C121.97 20 121.6 20.47 121.17 20.99C120.74 21.5 120.5 21.81 120.44 21.9C121.79 20.51 122.98 19.49 124.07 18.8C125.15 18.13 125.93 17.79 126.41 17.79C126.9 17.79 127.27 17.93 127.52 18.2C127.78 18.47 127.91 18.77 127.91 19.09C127.91 19.4 127.88 19.67 127.84 19.87C127.8 20.09 127.71 20.3 127.6 20.53C127.48 20.76 127.38 20.96 127.3 21.11C127.21 21.27 127.07 21.49 126.88 21.74C126.68 22 126.55 22.18 126.48 22.28C126.41 22.38 126.25 22.57 126.03 22.84C125.8 23.11 125.67 23.27 125.65 23.3C125.93 23.03 126.31 22.63 126.8 22.08C127.28 21.54 127.7 21.1 128.04 20.74C128.38 20.39 128.79 19.97 129.31 19.52C129.82 19.06 130.29 18.69 130.72 18.42C131.78 17.76 132.85 17.42 133.93 17.42C134.3 17.42 134.62 17.53 134.88 17.77C135.13 18.02 135.26 18.29 135.26 18.62C135.26 18.94 134.86 19.73 134.08 20.96C133.29 22.18 132.49 23.43 131.71 24.67C130.92 25.91 130.52 26.7 130.52 27.02C130.52 27.47 130.61 27.74 130.76 27.82C130.94 27.91 131.14 27.94 131.36 27.92C131.59 27.91 131.94 27.75 132.35 27.47C132.78 27.18 133.15 26.9 133.48 26.58C134.02 26.1 134.5 25.63 134.98 25.17C135.08 25.08 135.17 25.04 135.3 25.04C135.49 25.04 135.6 25.18 135.65 25.47C135.69 25.75 135.7 26.04 135.7 26.35C135.7 26.67 135.67 26.87 135.62 26.98C135.33 27.52 134.7 28.19 133.75 28.99C132.78 29.78 131.85 30.18 130.96 30.18C130.85 30.18 130.78 30.18 130.74 30.16C129.74 30.06 129.04 29.79 128.65 29.34C128.27 28.88 128.08 28.34 128.08 27.72C128.08 27.11 128.3 26.34 128.72 25.45C129.15 24.57 129.61 23.76 130.12 23.04C130.64 22.33 131.09 21.67 131.52 21.09C131.95 20.5 132.16 20.19 132.16 20.14C132.16 20.1 132.12 20.07 132.05 20.07C131.75 20.07 131.08 20.56 130.02 21.54C128.24 23.21 126.7 24.83 125.4 26.37C125.05 26.78 124.24 27.81 122.97 29.48C122.83 29.68 122.59 29.78 122.27 29.78C121.96 29.78 121.63 29.72 121.29 29.59C120.94 29.46 120.77 29.31 120.77 29.12C120.77 29.02 121.54 27.65 123.1 25.01C124.66 22.37 125.43 20.93 125.43 20.7C125.43 20.46 125.28 20.34 125 20.34C124.71 20.34 124.11 20.77 123.21 21.63C120.74 23.98 118.83 26.34 117.48 28.67C117.39 28.81 117.22 29.02 116.96 29.31C116.7 29.59 116.48 29.71 116.39 29.71Z" fill="#292F36" fill-opacity="1.000000" fill-rule="nonzero"/>
		<path id="Vector" d="M144.7 18.67C144.7 19.32 144.44 19.89 143.91 20.37C143.38 20.86 142.8 21.1 142.13 21.1C141.91 21.1 141.77 21.04 141.7 20.94C141.63 20.84 141.6 20.7 141.6 20.54C141.6 20.39 141.61 20.22 141.66 20.06C141.3 20.17 140.91 20.36 140.49 20.6C140.06 20.84 139.53 21.2 138.9 21.69C138.27 22.17 137.96 22.51 137.96 22.76C137.96 22.83 138.07 22.87 138.3 22.87C138.53 22.87 138.89 22.78 139.36 22.63C139.83 22.47 140.17 22.38 140.36 22.38C140.54 22.38 140.67 22.4 140.73 22.41C140.86 22.48 140.99 22.63 141.14 22.86C141.28 23.08 141.36 23.27 141.36 23.4C141.36 23.53 141.23 23.7 140.97 23.91C140.71 24.13 140.43 24.28 140.11 24.4C139.79 24.51 139.57 24.6 139.47 24.65C137.42 25.81 136.39 26.6 136.39 27.02C136.39 27.78 137.03 28.17 138.33 28.17C139.16 28.17 140 27.91 140.83 27.38C141.54 26.94 142.18 26.48 142.75 26.01C143.33 25.55 143.68 25.27 143.84 25.15C144 25.04 144.11 25 144.18 25C144.44 25 144.57 25.28 144.57 25.85C144.57 26.42 144.54 26.8 144.47 26.97C144.4 27.15 144.21 27.37 143.88 27.64C141.8 29.34 139.81 30.19 137.96 30.19C136.96 30.19 136.17 30.05 135.58 29.78C134.48 29.28 133.93 28.52 133.93 27.5C133.93 26.15 134.86 25.13 136.73 24.44C136.36 24.27 136.12 24.07 136.02 23.8C135.9 23.54 135.86 23.13 135.86 22.56C135.86 21.99 136.13 21.39 136.66 20.74C137.19 20.1 137.84 19.57 138.62 19.17C140.33 18.25 141.87 17.79 143.21 17.79C143.54 17.79 143.85 17.86 144.2 18.02C144.54 18.17 144.7 18.39 144.7 18.67Z" fill="#292F36" fill-opacity="1.000000" fill-rule="nonzero"/>
		<path id="Vector" d="M0 33.66C3.75 35.23 7.57 36.45 11.47 37.37C15.34 38.34 19.28 39.03 23.22 39.46C25.19 39.73 27.17 39.76 29.13 39.94C31.11 39.96 33.08 40.11 35.05 40L38.01 39.93C38.99 39.91 39.98 39.79 40.96 39.73C41.95 39.64 42.93 39.6 43.9 39.47L46.83 39.06C50.76 38.63 54.57 37.72 58.36 36.62C62.2 35.56 65.83 34.16 69.67 32.71C73.59 31.26 77.85 30.32 82.16 30.78C84.29 31.05 86.43 31.73 88.17 32.99C89.92 34.23 91.18 36 91.98 37.86C90.78 36.2 89.28 34.85 87.56 34C85.83 33.16 83.93 32.82 82.05 32.88C78.23 32.93 74.48 34.2 70.95 35.8C67.37 37.57 63.49 39.17 59.58 40.5C55.64 41.77 51.57 42.78 47.44 43.3C39.24 44.38 30.83 44.4 22.72 42.75C18.65 42.01 14.68 40.86 10.84 39.39C7.03 37.86 3.31 36.07 0 33.66Z" fill="#292F36" fill-opacity="1.000000" fill-rule="nonzero"/>
		<path id="Vector" d="M136.5 9.89C133.32 8.54 130.08 7.48 126.8 6.65C123.53 5.78 120.22 5.17 116.89 4.74C115.23 4.48 113.55 4.43 111.89 4.23C110.22 4.18 108.57 4.01 106.9 4.08C106.07 4.1 105.23 4.1 104.4 4.08C103.57 4.08 102.73 4.17 101.9 4.2C101.07 4.26 100.23 4.27 99.4 4.36L96.92 4.66C93.59 4.93 90.37 5.61 87.14 6.45C83.87 7.24 80.77 8.35 77.48 9.47C74.09 10.59 70.43 11.28 66.74 10.77C64.93 10.47 63.1 9.82 61.66 8.68C60.19 7.55 59.19 6.01 58.58 4.4C59.59 5.81 60.85 6.97 62.29 7.68C63.73 8.4 65.32 8.7 66.9 8.68C70.1 8.68 73.27 7.65 76.26 6.37C79.32 4.91 82.67 3.63 86.01 2.57C89.38 1.56 92.89 0.79 96.41 0.42C103.41 -0.33 110.58 -0.15 117.45 1.47C120.89 2.2 124.24 3.31 127.45 4.68C130.68 6.08 133.79 7.71 136.5 9.89Z" fill="#292F36" fill-opacity="1.000000" fill-rule="nonzero"/>
	</g>
</svg>
