<svg width="103.000000" height="103.000000" viewBox="0 0 103 103" fill="none" xmlns="http://www.w3.org/2000/svg" xmlns:xlink="http://www.w3.org/1999/xlink">
	<desc>
			Created with Pixso.
	</desc>
	<defs>
		<clipPath id="clip2_157">
			<rect id="IMAGE" rx="0.000000" width="102.000000" height="102.000000" transform="translate(0.500000 0.500000)" fill="white" fill-opacity="0"/>
		</clipPath>
	</defs>
	<g clip-path="url(#clip2_157)">
		<path id="Vector" d="M51.15 101.6C79.02 101.6 101.6 79.02 101.6 51.15C101.6 23.29 79.02 0.71 51.15 0.71C23.29 0.71 0.71 23.29 0.71 51.15C0.71 79.02 23.29 101.6 51.15 101.6Z" fill="#FFFFFF" fill-opacity="1.000000" fill-rule="nonzero"/>
		<path id="Vector" d="M51.15 102.32C22.95 102.32 0 79.36 0 51.15C0 22.95 22.95 0 51.15 0C79.36 0 102.32 22.95 102.32 51.15C102.32 79.36 79.36 102.32 51.15 102.32ZM51.15 1.42C23.73 1.42 1.42 23.73 1.42 51.15C1.42 78.58 23.73 100.89 51.15 100.89C78.58 100.89 100.89 78.58 100.89 51.15C100.89 23.73 78.58 1.42 51.15 1.42Z" fill="#292F36" fill-opacity="1.000000" fill-rule="nonzero"/>
		<path id="Vector" d="M58.35 5.83C58.69 5.86 58.99 5.88 59.23 5.88L59.21 6.1C58.81 6.16 58.46 6.46 58.19 7.03L54.8 13.83L54.7 13.81L54.61 13.8L52.45 6.22C52.31 5.72 52.07 5.45 51.73 5.4L51.75 5.18C52.07 5.23 52.48 5.28 53 5.33C53.67 5.39 54.17 5.43 54.5 5.43L54.47 5.66C54.17 5.65 53.95 5.66 53.82 5.7C53.7 5.75 53.62 5.86 53.61 6C53.6 6.13 53.62 6.32 53.7 6.56L55.28 12.36L57.64 7.62C57.84 7.23 57.94 6.92 57.96 6.69C57.99 6.45 57.92 6.26 57.76 6.13C57.61 6 57.35 5.93 57.01 5.89L57.04 5.66C57.45 5.73 57.89 5.79 58.35 5.83Z" fill="#292F36" fill-opacity="1.000000" fill-rule="nonzero"/>
		<path id="Vector" d="M67.94 8.85C67.8 8.85 67.68 8.9 67.6 9.02C67.51 9.13 67.41 9.32 67.31 9.59L65.27 15.01C65.17 15.28 65.12 15.5 65.12 15.64C65.12 15.78 65.16 15.9 65.26 15.98C65.36 16.07 65.54 16.17 65.8 16.28L65.71 16.5C65.39 16.35 64.93 16.17 64.34 15.94C63.72 15.7 63.25 15.54 62.93 15.44L63.02 15.23C63.29 15.31 63.49 15.35 63.62 15.35C63.74 15.35 63.87 15.3 63.96 15.18C64.04 15.07 64.14 14.88 64.24 14.61L66.29 9.19C66.39 8.92 66.44 8.7 66.44 8.56C66.44 8.42 66.4 8.3 66.3 8.22C66.2 8.13 66.01 8.03 65.76 7.92L65.84 7.7C66.14 7.83 66.6 8.02 67.23 8.26C67.81 8.49 68.28 8.65 68.63 8.75L68.54 8.96C68.28 8.87 68.08 8.83 67.94 8.85Z" fill="#292F36" fill-opacity="1.000000" fill-rule="nonzero"/>
		<path id="Vector" d="M80.65 16.4C80.5 16.37 80.36 16.41 80.23 16.5C80.1 16.58 79.95 16.75 79.78 17L75.64 22.61L75.42 22.45L75.98 13.43L72.31 18.39C72.14 18.64 72.02 18.84 71.97 18.99C71.91 19.15 71.94 19.29 72.01 19.44C72.08 19.58 72.25 19.74 72.5 19.94L72.35 20.12C72.14 19.94 71.82 19.69 71.41 19.38C71.04 19.11 70.74 18.89 70.51 18.77L70.65 18.58C70.88 18.74 71.07 18.82 71.21 18.84C71.35 18.87 71.5 18.82 71.62 18.74C71.75 18.64 71.91 18.48 72.08 18.24L75.45 13.67C75.62 13.43 75.74 13.24 75.78 13.11C75.82 12.98 75.81 12.86 75.74 12.74C75.66 12.63 75.52 12.49 75.29 12.3L75.44 12.11C75.62 12.29 75.91 12.51 76.29 12.79C76.58 13 76.82 13.17 77.05 13.3L76.59 20.86L79.56 16.84C79.73 16.6 79.86 16.4 79.9 16.24C79.95 16.08 79.93 15.94 79.86 15.8C79.79 15.65 79.62 15.48 79.38 15.3L79.52 15.11C79.73 15.3 80.05 15.54 80.46 15.85C80.83 16.13 81.13 16.34 81.36 16.47L81.22 16.65C80.97 16.51 80.79 16.41 80.65 16.4Z" fill="#292F36" fill-opacity="1.000000" fill-rule="nonzero"/>
		<path id="Vector" d="M85.43 22.83C85.8 22.56 86.18 22.26 86.6 21.89C86.96 22.43 87.58 23.33 88.48 24.6C89.38 25.86 90.02 26.75 90.41 27.26C89.92 27.54 89.51 27.8 89.14 28.06C88.83 28.29 88.57 28.49 88.38 28.64L88.23 28.43C88.68 28.03 89 27.7 89.18 27.46C89.37 27.22 89.44 26.96 89.42 26.69C89.41 26.42 89.24 26.09 88.97 25.69L88.6 25.18L83.19 29.03C82.93 29.22 82.74 29.39 82.66 29.51C82.57 29.64 82.54 29.8 82.6 29.97C82.64 30.13 82.77 30.36 82.96 30.64L82.77 30.79C82.56 30.44 82.23 29.96 81.8 29.37C81.35 28.73 81 28.27 80.77 27.99L80.96 27.84C81.17 28.12 81.35 28.3 81.49 28.4C81.63 28.5 81.77 28.53 81.93 28.49C82.09 28.44 82.3 28.33 82.56 28.14L87.97 24.29L87.6 23.78C87.31 23.38 87.06 23.13 86.81 23.02C86.57 22.91 86.3 22.89 86.01 22.99C85.73 23.09 85.31 23.28 84.79 23.58L84.63 23.36C84.84 23.25 85.1 23.08 85.43 22.83Z" fill="#292F36" fill-opacity="1.000000" fill-rule="nonzero"/>
		<path id="Vector" d="M88.17 42.65L87.94 42.72C87.85 42.4 87.74 42.01 87.57 41.52C87.36 40.89 87.18 40.42 87.06 40.11L87.28 40.04C87.38 40.31 87.5 40.51 87.58 40.61C87.68 40.71 87.81 40.73 87.95 40.68C88.08 40.63 88.24 40.53 88.43 40.38L90.01 39.08L89.11 36.41L87.78 36.35C87.36 36.32 87.03 36.35 86.8 36.44C86.57 36.52 86.43 36.65 86.37 36.84C86.33 37.02 86.36 37.29 86.46 37.62L86.23 37.69C86.11 37.27 85.97 36.84 85.83 36.41C85.71 36.08 85.61 35.81 85.51 35.6L85.74 35.52C85.94 35.87 86.37 36.05 87 36.07L94.59 36.41L94.65 36.58L88.6 41.62C88.23 41.98 88.08 42.3 88.17 42.65ZM93.12 36.58L89.38 36.42L90.22 38.94L93.12 36.58Z" fill="#292F36" fill-opacity="1.000000" fill-rule="nonzero"/>
		<path id="Vector" d="M89.21 53.57C89.35 53.51 89.43 53.44 89.43 53.34C89.43 53.28 89.41 53.24 89.38 53.2C89.35 53.15 89.3 53.07 89.21 52.95C89 52.68 88.84 52.4 88.73 52.11C88.61 51.83 88.55 51.5 88.55 51.14C88.54 50.34 88.7 49.66 89.01 49.07C89.34 48.49 89.8 48.04 90.42 47.73C91.04 47.42 91.78 47.26 92.65 47.24C93.55 47.23 94.34 47.37 95.01 47.69C95.68 48 96.21 48.43 96.58 49C96.95 49.57 97.15 50.21 97.15 50.93C97.15 51.24 97.12 51.53 97.06 51.77C97 52.01 96.92 52.23 96.82 52.41C96.72 52.6 96.59 52.81 96.42 53.04C96.35 53.14 96.31 53.22 96.31 53.28C96.31 53.42 96.55 53.52 97.02 53.57L97.02 53.84C96.52 53.81 95.62 53.81 94.34 53.84L94.34 53.57C94.75 53.5 95.09 53.41 95.36 53.32C95.63 53.24 95.86 53.11 96.06 52.95C96.33 52.73 96.56 52.43 96.72 52.05C96.88 51.68 96.95 51.31 96.95 50.91C96.93 50.4 96.76 49.96 96.42 49.57C96.08 49.19 95.59 48.9 94.98 48.69C94.35 48.49 93.64 48.39 92.81 48.4C91.87 48.41 91.11 48.53 90.51 48.74C89.91 48.96 89.48 49.27 89.2 49.68C88.91 50.1 88.78 50.63 88.8 51.27C88.81 51.74 88.94 52.14 89.18 52.48C89.28 52.63 89.37 52.71 89.47 52.75C89.55 52.8 89.68 52.81 89.84 52.81L90.97 52.8C91.3 52.8 91.52 52.75 91.68 52.7C91.82 52.64 91.94 52.53 91.98 52.35C92.04 52.2 92.07 51.94 92.07 51.6L92.29 51.6C92.28 51.98 92.27 52.53 92.28 53.25C92.29 53.8 92.31 54.21 92.34 54.47L92.11 54.47C92.09 54.28 92.05 54.15 92.01 54.08C91.97 54.01 91.87 53.95 91.74 53.92C91.61 53.9 91.4 53.88 91.1 53.9L88.78 53.94L88.78 53.71C88.91 53.65 89.07 53.62 89.21 53.57Z" fill="#292F36" fill-opacity="1.000000" fill-rule="nonzero"/>
		<path id="Vector" d="M87.51 65.72C87.1 65.59 86.61 65.46 86.06 65.34C86.24 64.84 86.51 64 86.9 62.8C87.36 61.38 87.68 60.29 87.88 59.56L88.11 59.63C88.04 59.91 88.01 60.11 88.01 60.25C88.03 60.39 88.08 60.49 88.2 60.58C88.31 60.66 88.51 60.75 88.78 60.83L94.31 62.57C94.59 62.66 94.79 62.7 94.93 62.7C95.08 62.7 95.19 62.65 95.28 62.53C95.36 62.42 95.45 62.23 95.55 61.98L95.78 62.05C95.52 62.77 95.18 63.85 94.72 65.27C94.38 66.36 94.14 67.14 94.02 67.61C93.55 67.41 93.12 67.24 92.72 67.13C92.44 67.04 92.19 66.97 92.02 66.94L92.11 66.69C92.61 66.79 92.99 66.83 93.25 66.83C93.51 66.83 93.72 66.74 93.89 66.57C94.06 66.41 94.21 66.13 94.34 65.74L94.62 64.82C94.71 64.54 94.75 64.34 94.74 64.22C94.72 64.09 94.68 63.97 94.56 63.89C94.45 63.8 94.26 63.72 93.98 63.63L91.35 62.8L91.12 63.55C91.01 63.92 91.04 64.2 91.22 64.4C91.41 64.6 91.61 64.74 91.84 64.84C92.07 64.94 92.21 65.02 92.27 65.04L92.18 65.3C91.82 65.16 91.48 65.03 91.14 64.93L90.61 64.77C90.24 64.66 89.7 64.5 89.01 64.34L89.1 64.09C89.15 64.1 89.34 64.13 89.65 64.2C89.97 64.26 90.24 64.23 90.45 64.12C90.67 64 90.81 63.79 90.91 63.49L91.14 62.75L88.45 61.9C88.17 61.82 87.97 61.78 87.83 61.78C87.68 61.78 87.57 61.83 87.5 61.95C87.41 62.06 87.33 62.25 87.24 62.52L86.98 63.33C86.84 63.8 86.78 64.17 86.84 64.44C86.88 64.73 87.03 64.96 87.27 65.16C87.51 65.34 87.88 65.56 88.38 65.79L88.3 66.04C88.13 65.91 87.85 65.83 87.51 65.72Z" fill="#292F36" fill-opacity="1.000000" fill-rule="nonzero"/>
		<path id="Vector" d="M83.44 83.23C83.5 83.1 83.49 82.97 83.43 82.84C83.37 82.72 83.23 82.56 83.02 82.34L78.82 78.33C78.6 78.13 78.43 78.01 78.31 77.95C78.18 77.89 78.05 77.89 77.92 77.95C77.79 78.01 77.63 78.13 77.43 78.33L77.26 78.18C77.53 77.93 77.88 77.58 78.32 77.13C78.78 76.65 79.12 76.28 79.33 76.04L79.5 76.19C79.32 76.41 79.2 76.58 79.15 76.69C79.09 76.82 79.1 76.95 79.16 77.08C79.22 77.21 79.36 77.36 79.58 77.58L83.77 81.59C83.99 81.79 84.16 81.92 84.29 81.97C84.41 82.03 84.54 82.03 84.67 81.97C84.8 81.92 84.96 81.79 85.16 81.59L85.33 81.75C85.09 81.96 84.73 82.32 84.27 82.8C83.83 83.26 83.5 83.63 83.27 83.9L83.1 83.74C83.27 83.53 83.39 83.36 83.44 83.23Z" fill="#292F36" fill-opacity="1.000000" fill-rule="nonzero"/>
		<path id="Vector" d="M71.55 91.94C71.64 91.81 71.65 91.68 71.62 91.52C71.6 91.37 71.5 91.17 71.34 90.9L67.8 84.89L68.03 84.74L76.11 88.78L72.98 83.47C72.82 83.22 72.7 83.03 72.57 82.93C72.44 82.83 72.3 82.79 72.14 82.8C71.98 82.82 71.77 82.9 71.5 83.04L71.37 82.84C71.62 82.73 71.97 82.53 72.41 82.27C72.81 82.03 73.11 81.85 73.32 81.69L73.44 81.89C73.21 82.03 73.05 82.17 72.98 82.3C72.9 82.43 72.88 82.56 72.91 82.72C72.94 82.87 73.04 83.07 73.19 83.34L76.08 88.24C76.22 88.5 76.35 88.67 76.46 88.75C76.58 88.84 76.69 88.88 76.83 88.85C76.96 88.83 77.16 88.75 77.41 88.63L77.52 88.83C77.29 88.94 76.98 89.11 76.56 89.35C76.26 89.52 76.01 89.7 75.79 89.84L69.01 86.46L71.55 90.77C71.71 91.02 71.84 91.21 71.97 91.31C72.08 91.41 72.22 91.45 72.4 91.44C72.57 91.42 72.78 91.34 73.05 91.2L73.17 91.39C72.91 91.51 72.57 91.71 72.12 91.97C71.72 92.21 71.42 92.39 71.21 92.55L71.1 92.35C71.31 92.19 71.47 92.05 71.55 91.94Z" fill="#292F36" fill-opacity="1.000000" fill-rule="nonzero"/>
		<path id="Vector" d="M63.7 93.81C63.8 94.25 63.93 94.74 64.1 95.25C63.46 95.36 62.39 95.59 60.88 95.91C59.36 96.23 58.31 96.48 57.68 96.63C57.61 96.08 57.54 95.59 57.44 95.15C57.35 94.76 57.28 94.45 57.19 94.22L57.45 94.16C57.64 94.75 57.81 95.16 57.96 95.43C58.12 95.71 58.32 95.88 58.58 95.96C58.83 96.05 59.21 96.03 59.68 95.93L60.29 95.81L58.89 89.31C58.82 89 58.75 88.77 58.65 88.64C58.55 88.51 58.43 88.43 58.26 88.41C58.09 88.38 57.84 88.41 57.49 88.47L57.45 88.24C57.85 88.18 58.42 88.07 59.13 87.91C59.89 87.74 60.46 87.61 60.82 87.51L60.86 87.74C60.52 87.83 60.29 87.91 60.15 88C60.01 88.08 59.92 88.21 59.89 88.37C59.86 88.53 59.88 88.77 59.95 89.08L61.35 95.58L61.96 95.45C62.43 95.35 62.77 95.21 62.97 95.02C63.17 94.84 63.29 94.59 63.32 94.29C63.35 93.99 63.33 93.54 63.26 92.94L63.52 92.88C63.56 93.11 63.62 93.42 63.7 93.81Z" fill="#292F36" fill-opacity="1.000000" fill-rule="nonzero"/>
		<path id="Vector" d="M44.76 89.8C44.8 89.35 44.82 88.85 44.82 88.3C45.35 88.37 46.23 88.45 47.49 88.57C48.97 88.7 50.1 88.8 50.87 88.84L50.86 89.07C50.57 89.05 50.37 89.07 50.24 89.11C50.11 89.15 50.01 89.23 49.96 89.35C49.9 89.48 49.86 89.7 49.83 89.98L49.31 95.76C49.28 96.05 49.3 96.26 49.33 96.41C49.36 96.55 49.44 96.65 49.57 96.71C49.7 96.76 49.9 96.82 50.17 96.85L50.16 97.08C49.4 96.99 48.27 96.88 46.79 96.75C45.64 96.65 44.83 96.59 44.35 96.56C44.45 96.06 44.52 95.61 44.55 95.19C44.57 94.89 44.59 94.65 44.57 94.46L44.85 94.49C44.86 95.01 44.89 95.38 44.96 95.63C45.02 95.89 45.15 96.08 45.35 96.21C45.53 96.33 45.84 96.42 46.24 96.45L47.22 96.53C47.5 96.56 47.7 96.55 47.83 96.52C47.96 96.49 48.06 96.41 48.11 96.28C48.17 96.15 48.21 95.93 48.24 95.65L48.49 92.91L47.71 92.84C47.33 92.81 47.06 92.89 46.9 93.12C46.76 93.35 46.64 93.58 46.6 93.82C46.54 94.06 46.52 94.22 46.5 94.29L46.23 94.26C46.29 93.88 46.33 93.52 46.37 93.16L46.42 92.61C46.44 92.21 46.47 91.67 46.5 90.95L46.77 90.98C46.77 91.04 46.79 91.22 46.79 91.55C46.8 91.88 46.87 92.14 47.04 92.31C47.2 92.49 47.44 92.59 47.76 92.62L48.53 92.69L48.77 89.9C48.8 89.61 48.79 89.4 48.76 89.25C48.73 89.13 48.64 89.03 48.51 88.97C48.39 88.91 48.19 88.87 47.91 88.84L47.06 88.77C46.57 88.73 46.2 88.75 45.93 88.87C45.67 88.97 45.47 89.17 45.33 89.44C45.19 89.71 45.07 90.12 44.96 90.67L44.69 90.64C44.69 90.42 44.72 90.14 44.76 89.8Z" fill="#292F36" fill-opacity="1.000000" fill-rule="nonzero"/>
		<path id="Vector" d="M33.53 84.5C33.74 84.46 33.98 84.5 34.24 84.61C34.54 84.74 34.74 84.93 34.85 85.17C34.97 85.43 34.98 85.79 34.91 86.26L34.7 87.43C34.62 87.84 34.58 88.15 34.57 88.4C34.55 88.63 34.61 88.84 34.71 89.03C34.81 89.21 35 89.35 35.27 89.47L36.3 89.9L37.34 87.41C37.45 87.14 37.51 86.94 37.52 86.8C37.54 86.66 37.48 86.54 37.38 86.44C37.28 86.34 37.11 86.24 36.85 86.13L36.94 85.91C37.27 86.07 37.71 86.27 38.29 86.51C38.91 86.77 39.38 86.96 39.69 87.06L39.61 87.27C39.34 87.17 39.14 87.13 39.01 87.11C38.86 87.11 38.75 87.16 38.66 87.27C38.56 87.37 38.46 87.56 38.35 87.83L36.11 93.18C36 93.45 35.94 93.65 35.92 93.79C35.91 93.94 35.97 94.05 36.07 94.15C36.17 94.25 36.34 94.35 36.59 94.48L36.51 94.69C36.21 94.55 35.78 94.35 35.21 94.11C34.92 93.99 34.62 93.86 34.28 93.72C33.94 93.58 33.71 93.49 33.58 93.44C33.03 93.19 32.58 92.92 32.26 92.59C31.93 92.27 31.74 91.92 31.66 91.55C31.57 91.18 31.61 90.82 31.77 90.47C31.88 90.18 32.07 89.92 32.33 89.7C32.58 89.47 32.91 89.3 33.31 89.21C33.71 89.13 34.2 89.14 34.72 89.27L34.6 89.2C34.3 89.01 34.07 88.83 33.93 88.63C33.78 88.44 33.68 88.23 33.65 88C33.61 87.77 33.63 87.48 33.68 87.14L33.88 85.93C33.93 85.69 33.95 85.5 33.95 85.36C33.95 85.21 33.94 85.1 33.9 85.01C33.85 84.93 33.78 84.86 33.68 84.83C33.57 84.77 33.45 84.77 33.35 84.8C33.25 84.83 33.11 84.9 32.93 85L32.81 84.81C33.07 84.66 33.31 84.54 33.53 84.5ZM34.24 89.58C33.9 89.62 33.63 89.75 33.41 89.97C33.2 90.18 33.01 90.47 32.85 90.84C32.61 91.42 32.56 91.94 32.71 92.35C32.87 92.77 33.25 93.11 33.9 93.38C34.13 93.48 34.3 93.52 34.44 93.51C34.57 93.51 34.68 93.45 34.78 93.34C34.88 93.22 34.98 93.04 35.08 92.78L36.2 90.12L35.47 89.82C35 89.62 34.58 89.54 34.24 89.58Z" fill="#292F36" fill-opacity="1.000000" fill-rule="nonzero"/>
		<path id="Vector" d="M22.39 86.44C22.52 86.48 22.65 86.46 22.76 86.38C22.88 86.31 23.03 86.16 23.22 85.93L26.8 81.36C26.99 81.13 27.1 80.95 27.15 80.82C27.19 80.69 27.17 80.56 27.1 80.45C27.03 80.33 26.89 80.18 26.67 79.99L26.82 79.8C27.09 80.05 27.46 80.36 27.96 80.75C28.49 81.16 28.89 81.46 29.16 81.65L29.02 81.83C28.79 81.66 28.6 81.56 28.47 81.53C28.34 81.49 28.22 81.5 28.1 81.59C27.99 81.66 27.83 81.82 27.64 82.05L24.06 86.61C23.88 86.84 23.76 87.03 23.72 87.16C23.68 87.28 23.69 87.41 23.76 87.53C23.83 87.64 23.98 87.8 24.19 87.98L24.05 88.17C23.8 87.95 23.42 87.64 22.89 87.21C22.39 86.83 21.99 86.53 21.71 86.33L21.85 86.14C22.09 86.3 22.26 86.4 22.39 86.44Z" fill="#292F36" fill-opacity="1.000000" fill-rule="nonzero"/>
		<path id="Vector" d="M13.17 76.28C13.11 75.64 13.26 74.99 13.58 74.38C13.93 73.75 14.44 73.19 15.15 72.67C15.85 72.17 16.55 71.84 17.28 71.71C18.01 71.58 18.68 71.62 19.31 71.87C19.94 72.11 20.46 72.52 20.88 73.11C21.32 73.71 21.56 74.34 21.62 74.98C21.68 75.62 21.54 76.26 21.21 76.88C20.86 77.51 20.35 78.06 19.64 78.59C18.94 79.09 18.24 79.42 17.51 79.55C16.8 79.68 16.11 79.63 15.48 79.39C14.85 79.15 14.33 78.73 13.91 78.16C13.47 77.55 13.23 76.92 13.17 76.28ZM15.31 78.82C15.81 78.92 16.38 78.88 17.01 78.68C17.64 78.48 18.27 78.15 18.92 77.66C19.58 77.19 20.09 76.68 20.45 76.14C20.82 75.59 21.02 75.05 21.05 74.54C21.09 74.02 20.96 73.57 20.69 73.18C20.39 72.78 20.01 72.52 19.49 72.42C18.99 72.32 18.42 72.37 17.8 72.57C17.17 72.77 16.54 73.1 15.88 73.57C15.23 74.04 14.71 74.55 14.36 75.11C13.98 75.65 13.78 76.18 13.74 76.71C13.7 77.22 13.83 77.68 14.1 78.06C14.4 78.46 14.8 78.72 15.31 78.82Z" fill="#292F36" fill-opacity="1.000000" fill-rule="nonzero"/>
		<path id="Vector" d="M14.27 59.09C14.44 59.22 14.57 59.43 14.65 59.72C14.75 60.02 14.74 60.3 14.63 60.55C14.51 60.8 14.24 61.05 13.83 61.29L12.78 61.87C12.43 62.09 12.16 62.26 11.97 62.4C11.79 62.55 11.66 62.72 11.59 62.92C11.51 63.12 11.51 63.35 11.6 63.63L11.93 64.7L14.5 63.9C14.78 63.82 14.97 63.73 15.08 63.65C15.2 63.56 15.25 63.45 15.27 63.32C15.28 63.19 15.24 62.97 15.17 62.7L15.4 62.63C15.48 62.97 15.61 63.46 15.81 64.06C16.01 64.7 16.17 65.17 16.28 65.47L16.05 65.54C15.95 65.27 15.87 65.09 15.78 64.99C15.7 64.89 15.58 64.82 15.44 64.82C15.3 64.82 15.08 64.84 14.81 64.94L9.27 66.66C8.99 66.74 8.8 66.83 8.69 66.91C8.57 67 8.52 67.11 8.5 67.24C8.49 67.38 8.53 67.58 8.6 67.86L8.37 67.93C8.3 67.61 8.17 67.16 7.99 66.56C7.9 66.27 7.79 65.94 7.67 65.6C7.56 65.26 7.47 65.02 7.43 64.89C7.25 64.3 7.19 63.79 7.23 63.33C7.27 62.87 7.42 62.5 7.65 62.2C7.87 61.9 8.17 61.7 8.55 61.59C8.83 61.5 9.14 61.48 9.49 61.52C9.83 61.56 10.16 61.7 10.5 61.96C10.84 62.22 11.13 62.59 11.37 63.09L11.36 62.95C11.31 62.59 11.3 62.3 11.36 62.06C11.41 61.82 11.51 61.62 11.66 61.45C11.81 61.28 12.04 61.09 12.34 60.92L13.4 60.29C13.61 60.18 13.78 60.06 13.88 59.98C13.98 59.89 14.07 59.81 14.11 59.72C14.16 59.63 14.16 59.53 14.13 59.43C14.08 59.31 14.03 59.22 13.94 59.16C13.86 59.11 13.71 59.03 13.51 58.96L13.58 58.75C13.87 58.85 14.11 58.96 14.27 59.09ZM10.86 62.92C10.62 62.69 10.33 62.56 10.03 62.53C9.73 62.5 9.39 62.55 9 62.67C8.39 62.86 7.97 63.16 7.75 63.55C7.52 63.93 7.52 64.46 7.72 65.1C7.79 65.33 7.87 65.5 7.96 65.6C8.05 65.7 8.17 65.76 8.32 65.76C8.46 65.76 8.67 65.72 8.93 65.64L11.67 64.79L11.44 64.03C11.3 63.52 11.1 63.15 10.86 62.92Z" fill="#292F36" fill-opacity="1.000000" fill-rule="nonzero"/>
		<path id="Vector" d="M13.17 45.55C13.71 45.3 14.04 44.85 14.18 44.16C14.23 43.9 14.23 43.65 14.16 43.4C14.08 43.16 13.96 42.95 13.76 42.76C13.56 42.58 13.28 42.45 12.93 42.39C12.63 42.33 12.36 42.36 12.1 42.46C11.84 42.56 11.59 42.72 11.34 42.93C11.1 43.15 10.82 43.43 10.5 43.79C10.14 44.19 9.83 44.52 9.56 44.75C9.29 44.99 8.99 45.16 8.66 45.29C8.33 45.42 7.96 45.43 7.55 45.36C7.12 45.27 6.76 45.12 6.5 44.86C6.25 44.6 6.06 44.3 5.98 43.95C5.89 43.59 5.89 43.22 5.96 42.82C6 42.58 6.06 42.39 6.13 42.22C6.2 42.05 6.28 41.92 6.36 41.82C6.45 41.72 6.53 41.61 6.65 41.49C6.79 41.33 6.86 41.22 6.89 41.13C6.9 41.06 6.88 41.01 6.8 40.95C6.73 40.89 6.6 40.85 6.43 40.79L6.48 40.53C6.92 40.65 7.69 40.82 8.82 41.03L8.77 41.29C8.37 41.25 8 41.26 7.63 41.35C7.27 41.42 6.96 41.58 6.7 41.82C6.45 42.05 6.28 42.38 6.2 42.78C6.15 43.05 6.16 43.29 6.23 43.53C6.3 43.78 6.43 43.96 6.6 44.12C6.79 44.27 7 44.37 7.26 44.43C7.67 44.5 8.03 44.45 8.33 44.25C8.63 44.05 8.92 43.79 9.19 43.49C9.46 43.19 9.63 42.99 9.73 42.89C10.13 42.46 10.46 42.13 10.73 41.89C11 41.65 11.3 41.48 11.63 41.36C11.96 41.25 12.31 41.23 12.7 41.31C13.17 41.39 13.56 41.58 13.84 41.85C14.13 42.13 14.31 42.46 14.41 42.86C14.51 43.26 14.51 43.69 14.43 44.15C14.36 44.52 14.27 44.8 14.14 45.03C14.03 45.26 13.87 45.46 13.7 45.65C13.56 45.8 13.48 45.92 13.46 46C13.44 46.07 13.47 46.13 13.54 46.19C13.61 46.24 13.74 46.3 13.91 46.34L13.87 46.6C13.46 46.49 12.54 46.3 11.13 46.04L11.17 45.79C11.97 45.86 12.63 45.79 13.17 45.55Z" fill="#292F36" fill-opacity="1.000000" fill-rule="nonzero"/>
		<path id="Vector" d="M10.34 33.51C9.94 33.3 9.49 33.1 8.97 32.9C9.29 32.34 9.82 31.37 10.53 29.99C11.24 28.62 11.74 27.64 12.01 27.06C12.49 27.36 12.91 27.62 13.3 27.82C13.64 28 13.94 28.13 14.17 28.23L14.04 28.47C13.47 28.24 13.04 28.1 12.74 28.06C12.44 28 12.17 28.06 11.94 28.2C11.71 28.34 11.49 28.63 11.27 29.06L10.99 29.63L16.88 32.7C17.17 32.85 17.4 32.93 17.55 32.94C17.71 32.95 17.85 32.91 17.98 32.8C18.11 32.68 18.25 32.47 18.42 32.17L18.64 32.28C18.42 32.64 18.15 33.14 17.81 33.8C17.45 34.48 17.2 35.01 17.04 35.34L16.82 35.22C16.97 34.91 17.07 34.67 17.08 34.51C17.11 34.34 17.07 34.2 16.95 34.07C16.84 33.94 16.65 33.81 16.37 33.65L10.47 30.57L10.17 31.13C9.94 31.56 9.84 31.9 9.86 32.17C9.87 32.44 9.99 32.68 10.2 32.9C10.42 33.11 10.77 33.4 11.29 33.73L11.16 33.97C10.97 33.85 10.69 33.7 10.34 33.51Z" fill="#292F36" fill-opacity="1.000000" fill-rule="nonzero"/>
		<path id="Vector" d="M20.42 17.11C20.66 16.87 20.86 16.64 21.01 16.47L21.18 16.64C21.09 16.77 21.05 16.95 21.06 17.17C21.08 17.38 21.14 17.68 21.25 18.04L22.55 21.91L24.06 23.41C24.28 23.61 24.43 23.75 24.56 23.81C24.69 23.86 24.82 23.86 24.95 23.81C25.08 23.75 25.23 23.62 25.45 23.43L25.62 23.61C25.35 23.85 24.99 24.19 24.55 24.63C24.08 25.1 23.73 25.48 23.52 25.72L23.35 25.55C23.53 25.33 23.66 25.18 23.72 25.05C23.78 24.92 23.78 24.79 23.7 24.66C23.65 24.53 23.51 24.36 23.31 24.16L22.05 22.92L17.28 21.52C17 21.44 16.78 21.41 16.64 21.42C16.5 21.44 16.4 21.48 16.33 21.55L16.15 21.38C16.38 21.18 16.64 20.95 16.9 20.68C17.42 20.14 17.81 19.75 18.02 19.49L18.2 19.67C17.81 20.05 17.72 20.35 17.94 20.56C18.02 20.65 18.14 20.71 18.31 20.76L22.32 22.01L21.26 18.85C21.11 18.39 20.95 18.08 20.78 17.92C20.62 17.77 20.45 17.72 20.26 17.78C20.08 17.84 19.87 17.98 19.61 18.22L19.44 18.05C19.78 17.74 20.09 17.42 20.42 17.11Z" fill="#292F36" fill-opacity="1.000000" fill-rule="nonzero"/>
		<path id="Vector" d="M29.06 11.36C28.97 11.46 28.93 11.59 28.96 11.73C28.99 11.87 29.06 12.07 29.2 12.33L31.96 17.44C32.1 17.7 32.21 17.87 32.33 17.97C32.43 18.07 32.56 18.1 32.68 18.08C32.81 18.07 33.01 17.98 33.25 17.85L34.01 17.44C34.44 17.21 34.74 16.97 34.9 16.72C35.05 16.48 35.11 16.21 35.07 15.88C35.02 15.55 34.9 15.14 34.67 14.6L34.91 14.47C35.01 14.7 35.15 14.98 35.34 15.33C35.55 15.71 35.81 16.14 36.12 16.61C35.65 16.84 34.85 17.25 33.75 17.85C32.44 18.57 31.44 19.11 30.79 19.49L30.67 19.29C30.91 19.15 31.08 19.02 31.17 18.92C31.26 18.82 31.3 18.69 31.27 18.55C31.24 18.41 31.17 18.21 31.03 17.95L28.24 12.84C28.1 12.59 27.99 12.41 27.87 12.31C27.77 12.21 27.64 12.19 27.52 12.2C27.37 12.21 27.19 12.29 26.93 12.41L26.83 12.2C27.13 12.07 27.57 11.84 28.16 11.51C28.72 11.21 29.14 10.97 29.44 10.79L29.56 10.99C29.31 11.13 29.16 11.26 29.06 11.36Z" fill="#292F36" fill-opacity="1.000000" fill-rule="nonzero"/>
		<path id="Vector" d="M46.44 12.27C46.53 12.7 46.66 13.18 46.82 13.73C46.29 13.81 45.42 13.97 44.19 14.21C42.72 14.5 41.62 14.73 40.86 14.9L40.82 14.67C41.09 14.6 41.29 14.54 41.41 14.46C41.52 14.38 41.59 14.27 41.61 14.14C41.62 14 41.61 13.78 41.55 13.5L40.43 7.8C40.38 7.52 40.32 7.32 40.23 7.19C40.15 7.06 40.06 6.99 39.92 6.98C39.79 6.95 39.58 6.96 39.31 7L39.26 6.78C40.02 6.65 41.13 6.45 42.59 6.16C43.72 5.93 44.52 5.78 44.97 5.66C45.02 6.18 45.09 6.63 45.16 7.03C45.22 7.33 45.27 7.56 45.33 7.73L45.07 7.79C44.92 7.3 44.77 6.95 44.65 6.72C44.52 6.49 44.33 6.35 44.12 6.28C43.89 6.2 43.59 6.2 43.18 6.29L42.22 6.48C41.95 6.53 41.75 6.59 41.63 6.66C41.52 6.73 41.45 6.83 41.42 6.98C41.41 7.12 41.42 7.33 41.48 7.62L42 10.33L42.76 10.17C43.15 10.1 43.38 9.93 43.46 9.67C43.55 9.42 43.58 9.17 43.56 8.93C43.55 8.69 43.53 8.53 43.53 8.46L43.79 8.4C43.83 8.79 43.89 9.14 43.96 9.49L44.07 10.03C44.15 10.42 44.27 10.96 44.46 11.64L44.2 11.7C44.19 11.64 44.13 11.47 44.03 11.16C43.93 10.84 43.79 10.63 43.58 10.5C43.36 10.37 43.12 10.34 42.8 10.4L42.05 10.54L42.59 13.3C42.65 13.58 42.7 13.78 42.78 13.91C42.85 14.03 42.95 14.1 43.09 14.13C43.22 14.14 43.43 14.13 43.7 14.07L44.55 13.9C45.02 13.8 45.37 13.67 45.6 13.5C45.83 13.33 45.96 13.08 46.02 12.79C46.07 12.49 46.07 12.06 46.03 11.5L46.29 11.44C46.33 11.66 46.37 11.93 46.44 12.27Z" fill="#292F36" fill-opacity="1.000000" fill-rule="nonzero"/>
		<path id="Vector" d="M36.82 66.79C36.17 65.9 35.6 64.93 35.1 63.86C34.6 62.79 34.2 61.7 33.9 60.59C33.24 55.69 33.23 50.94 33.84 46.33C34.45 41.72 35.45 37.18 36.82 32.7C37.05 32.2 37.55 31.96 38.32 31.96C39.09 31.96 39.85 32.13 40.62 32.47C41.39 32.81 42.02 33.27 42.52 33.84C43.02 34.41 43.13 35.01 42.86 35.62C42.43 36.54 42.02 37.78 41.61 39.32C41.19 40.88 40.78 42.59 40.41 44.46C40.02 46.33 39.69 48.3 39.41 50.34C39.12 52.38 38.91 54.35 38.78 56.22C38.65 58.09 38.62 59.79 38.69 61.3C38.76 62.82 38.99 64.02 39.38 64.89C41.18 62.47 42.82 59.98 44.32 57.39C45.82 54.81 47.22 52.2 48.53 49.53C49.84 46.87 51.1 44.19 52.28 41.46C53.47 38.75 54.64 36.07 55.78 33.43C56.35 32.08 56.92 30.67 57.48 29.19C58.04 27.69 58.76 26.42 59.69 25.35C60.08 25 60.38 24.89 60.58 25C60.79 25.12 60.93 25.33 61 25.66C61.08 25.99 61.12 26.33 61.12 26.69C61.12 27.05 61.12 27.33 61.12 27.52C60.85 29.27 60.62 31.01 60.43 32.74C60.25 34.47 59.83 36.12 59.23 37.74C58.24 40.26 57.22 42.76 56.17 45.26C55.11 47.74 53.98 50.2 52.78 52.61C51.58 55.02 50.27 57.36 48.89 59.63C47.49 61.92 45.97 64.09 44.32 66.14C43.02 67.78 41.72 68.66 40.45 68.76C39.12 68.87 37.94 68.2 36.82 66.79Z" fill="#292F36" fill-opacity="1.000000" fill-rule="nonzero"/>
		<path id="Vector" d="M35.1 63.86C34.6 62.79 34.2 61.7 33.9 60.59C33.24 55.69 33.23 50.94 33.84 46.33C34.45 41.72 35.45 37.18 36.82 32.7C37.05 32.2 37.55 31.96 38.32 31.96C39.09 31.96 39.85 32.13 40.62 32.47C41.39 32.81 42.02 33.27 42.52 33.84C43.02 34.41 43.13 35.01 42.86 35.62C42.43 36.54 42.02 37.78 41.61 39.32C41.19 40.88 40.78 42.59 40.41 44.46C40.02 46.33 39.69 48.3 39.41 50.34C39.12 52.38 38.91 54.35 38.78 56.22C38.65 58.09 38.62 59.79 38.69 61.3C38.76 62.82 38.99 64.02 39.38 64.89C41.18 62.47 42.82 59.98 44.32 57.39C45.82 54.81 47.22 52.2 48.53 49.53C49.84 46.87 51.1 44.19 52.28 41.46C53.47 38.75 54.64 36.07 55.78 33.43C56.35 32.08 56.92 30.67 57.48 29.19C58.04 27.69 58.76 26.42 59.69 25.35C60.08 25 60.38 24.89 60.58 25C60.79 25.12 60.93 25.33 61 25.66C61.08 25.99 61.12 26.33 61.12 26.69C61.12 27.05 61.12 27.33 61.12 27.52C60.85 29.27 60.62 31.01 60.43 32.74C60.25 34.47 59.83 36.12 59.23 37.74C58.24 40.26 57.22 42.76 56.17 45.26C55.11 47.74 53.98 50.2 52.78 52.61C51.58 55.02 50.27 57.36 48.89 59.63C47.49 61.92 45.97 64.09 44.32 66.14C43.02 67.78 41.72 68.66 40.45 68.76C39.12 68.87 37.94 68.2 36.82 66.79C36.17 65.9 35.6 64.93 35.1 63.86Z" stroke="#FFFFFF" stroke-opacity="1.000000" stroke-width="1.000000"/>
		<path id="Vector" d="M60.46 60.3C59.69 59.23 58.93 58.15 58.19 57.04C57.45 55.92 57.08 54.71 57.08 53.37C57.08 51.88 57.51 50.47 58.36 49.14C59.22 47.83 60.21 46.76 61.32 45.96C61.78 45.66 62.25 45.4 62.72 45.22C63.19 45.03 63.7 45.05 64.24 45.27C64.47 45.39 64.72 45.47 64.96 45.53C65.2 45.59 65.43 45.66 65.62 45.73C65.8 45.8 66.01 45.92 66.24 46.07C66.47 46.23 66.59 46.43 66.59 46.7C66.59 47.77 66.61 48.64 66.67 49.31C66.73 49.98 66.81 50.56 66.93 51.04C67.04 51.53 67.16 51.94 67.27 52.3C67.39 52.67 67.5 53.05 67.61 53.47C67.69 53.85 67.67 54.18 67.56 54.44C67.44 54.71 67.16 54.74 66.7 54.55C65.86 54.25 65.23 53.64 64.83 52.71C64.43 51.78 64.13 50.96 63.95 50.18C63.9 50.03 63.82 49.77 63.66 49.38C63.5 49 63.42 48.73 63.37 48.59C63.07 48.51 62.7 48.61 62.29 48.9C61.88 49.18 61.49 49.58 61.18 50.07C60.85 50.57 60.63 51.14 60.55 51.8C60.45 52.45 60.58 53.1 60.92 53.75C61.08 53.98 61.29 54.27 61.58 54.58C61.86 54.91 62.15 55.24 62.43 55.58C62.72 55.92 63 56.27 63.29 56.58C63.57 56.89 63.82 57.16 64 57.35C64.23 57.58 64.39 57.71 64.46 57.72C64.53 57.74 64.73 57.69 65.03 57.58C65.42 57.39 66 57.14 66.79 56.84C67.57 56.54 68.4 56.22 69.26 55.92C70.11 55.62 70.94 55.37 71.72 55.15C72.51 54.94 73.11 54.84 73.54 54.84C73.81 54.84 73.99 54.94 74.11 55.12C74.22 55.24 74.21 55.39 74.05 55.58C73.89 55.77 73.69 55.97 73.45 56.15C73.21 56.34 72.94 56.51 72.68 56.66C72.41 56.82 72.24 56.91 72.17 56.95C71.51 57.34 70.7 57.76 69.7 58.25C68.7 58.72 67.84 59.19 67.11 59.65C67.04 59.72 66.9 59.81 66.69 59.88C66.47 59.95 66.31 60.03 66.2 60.11C66.66 61.13 66.99 62.03 67.17 62.77C67.36 63.52 67.43 64.23 67.37 64.93C67.31 65.61 67.17 66.31 66.94 67.03C66.71 67.74 66.4 68.56 66.03 69.47C65.49 70.35 64.94 71.2 64.39 72C63.83 72.8 63.22 73.52 62.52 74.18C61.83 74.84 61.08 75.35 60.28 75.72C59.48 76.11 58.59 76.29 57.64 76.29C57.09 76.29 56.58 76.22 56.08 76.09C55.58 75.96 55.17 75.68 54.82 75.26C53.94 74.31 53.45 73.27 53.34 72.14C53.22 71.01 53.32 69.9 53.62 68.78C53.85 68.1 54.14 67.47 54.48 66.89C55.32 65.43 56.25 64.2 57.26 63.19C58.29 62.19 59.35 61.22 60.46 60.3ZM62.42 62.89C61.99 63.32 61.42 63.92 60.69 64.7C59.96 65.49 59.29 66.34 58.65 67.26C58.02 68.17 57.51 69.08 57.11 69.98C56.71 70.88 56.61 71.65 56.79 72.31C57.56 71.97 58.35 71.4 59.15 70.61C59.95 69.83 60.66 68.97 61.28 68.03C61.89 67.09 62.32 66.16 62.56 65.24C62.8 64.32 62.76 63.53 62.42 62.89Z" fill="#292F36" fill-opacity="1.000000" fill-rule="nonzero"/>
		<path id="Vector" d="M58.19 57.04C57.45 55.92 57.08 54.71 57.08 53.37C57.08 51.88 57.51 50.47 58.36 49.14C59.22 47.83 60.21 46.76 61.32 45.96C61.78 45.66 62.25 45.4 62.72 45.22C63.19 45.03 63.7 45.05 64.24 45.27C64.47 45.39 64.72 45.47 64.96 45.53C65.2 45.59 65.43 45.66 65.62 45.73C65.8 45.8 66.01 45.92 66.24 46.07C66.47 46.23 66.59 46.43 66.59 46.7C66.59 47.77 66.61 48.64 66.67 49.31C66.73 49.98 66.81 50.56 66.93 51.04C67.04 51.53 67.16 51.94 67.27 52.3C67.39 52.67 67.5 53.05 67.61 53.47C67.69 53.85 67.67 54.18 67.56 54.44C67.44 54.71 67.16 54.74 66.7 54.55C65.86 54.25 65.23 53.64 64.83 52.71C64.43 51.78 64.13 50.96 63.95 50.18C63.9 50.03 63.82 49.77 63.66 49.38C63.5 49 63.42 48.73 63.37 48.59C63.07 48.51 62.7 48.61 62.29 48.9C61.88 49.18 61.49 49.58 61.18 50.07C60.85 50.57 60.63 51.14 60.55 51.8C60.45 52.45 60.58 53.1 60.92 53.75C61.08 53.98 61.29 54.27 61.58 54.58C61.86 54.91 62.15 55.24 62.43 55.58C62.72 55.92 63 56.27 63.29 56.58C63.57 56.89 63.82 57.16 64 57.35C64.23 57.58 64.39 57.71 64.46 57.72C64.53 57.74 64.73 57.69 65.03 57.58C65.42 57.39 66 57.14 66.79 56.84C67.57 56.54 68.4 56.22 69.26 55.92C70.11 55.62 70.94 55.37 71.72 55.15C72.51 54.94 73.11 54.84 73.54 54.84C73.81 54.84 73.99 54.94 74.11 55.12C74.22 55.24 74.21 55.39 74.05 55.58C73.89 55.77 73.69 55.97 73.45 56.15C73.21 56.34 72.94 56.51 72.68 56.66C72.41 56.82 72.24 56.91 72.17 56.95C71.51 57.34 70.7 57.76 69.7 58.25C68.7 58.72 67.84 59.19 67.11 59.65C67.04 59.72 66.9 59.81 66.69 59.88C66.47 59.95 66.31 60.03 66.2 60.11C66.66 61.13 66.99 62.03 67.17 62.77C67.36 63.52 67.43 64.23 67.37 64.93C67.31 65.61 67.17 66.31 66.94 67.03C66.71 67.74 66.4 68.56 66.03 69.47C65.49 70.35 64.94 71.2 64.39 72C63.83 72.8 63.22 73.52 62.52 74.18C61.83 74.84 61.08 75.35 60.28 75.72C59.48 76.11 58.59 76.29 57.64 76.29C57.09 76.29 56.58 76.22 56.08 76.09C55.58 75.96 55.17 75.68 54.82 75.26C53.94 74.31 53.45 73.27 53.34 72.14C53.22 71.01 53.32 69.9 53.62 68.78C53.85 68.1 54.14 67.47 54.48 66.89C55.32 65.43 56.25 64.2 57.26 63.19C58.29 62.19 59.35 61.22 60.46 60.3C59.69 59.23 58.93 58.15 58.19 57.04ZM60.69 64.7C59.96 65.49 59.29 66.34 58.65 67.26C58.02 68.17 57.51 69.08 57.11 69.98C56.71 70.88 56.61 71.65 56.79 72.31C57.56 71.97 58.35 71.4 59.15 70.61C59.95 69.83 60.66 68.97 61.28 68.03C61.89 67.09 62.32 66.16 62.56 65.24C62.8 64.32 62.76 63.53 62.42 62.89C61.99 63.32 61.42 63.92 60.69 64.7Z" stroke="#FFFFFF" stroke-opacity="1.000000" stroke-width="1.000000"/>
		<path id="Vector" d="M51.15 83.54C33.3 83.54 18.77 69.01 18.77 51.15C18.77 33.3 33.3 18.77 51.15 18.77C69.01 18.77 83.54 33.3 83.54 51.15C83.54 69.01 69.01 83.54 51.15 83.54ZM51.15 20.19C34.08 20.19 20.19 34.08 20.19 51.15C20.19 68.23 34.08 82.12 51.15 82.12C68.23 82.12 82.12 68.23 82.12 51.15C82.12 34.08 68.23 20.19 51.15 20.19Z" fill="#292F36" fill-opacity="1.000000" fill-rule="nonzero"/>
	</g>
</svg>
