<svg width="132.000000" height="43.000000" viewBox="0 0 132 43" fill="none" xmlns="http://www.w3.org/2000/svg" xmlns:xlink="http://www.w3.org/1999/xlink">
	<desc>
			Created with Pixso.
	</desc>
	<defs>
		<clipPath id="clip2_144">
			<rect id="IMAGE" rx="0.000000" width="131.000000" height="42.000000" transform="translate(0.500000 0.500000)" fill="white" fill-opacity="0"/>
		</clipPath>
	</defs>
	<g clip-path="url(#clip2_144)">
		<path id="Vector" d="M11.63 0L11.63 0.18L10.86 0.37L10.86 8.59L11.63 8.77L11.63 8.96L7.97 8.96L7.97 8.77L8.75 8.59L8.75 1.58L5.72 9.09L5.33 9.09L1.41 1.58L1.41 8.39L2.44 8.77L2.44 8.96L0 8.96L0 8.77L1.02 8.39L1.02 0.37L0.25 0.18L0.25 0L1.85 0C2.09 0 2.31 0.02 2.48 0.08C2.65 0.14 2.82 0.21 2.95 0.31C3.09 0.41 3.21 0.52 3.31 0.65C3.41 0.78 3.49 0.94 3.58 1.09L6.38 6.45L8.52 1.09C8.59 0.91 8.66 0.75 8.76 0.62C8.85 0.49 8.96 0.38 9.09 0.28C9.22 0.18 9.37 0.11 9.56 0.07C9.74 0.02 9.97 0 10.26 0L11.63 0Z" fill="#292F36" fill-opacity="1.000000" fill-rule="nonzero"/>
		<path id="Vector" d="M16.2 2.38C16.72 2.38 17.21 2.45 17.62 2.61C18.04 2.76 18.39 2.99 18.69 3.28C18.99 3.58 19.21 3.93 19.37 4.35C19.52 4.76 19.59 5.25 19.59 5.78C19.59 6.3 19.52 6.79 19.37 7.2C19.21 7.62 18.98 7.97 18.69 8.27C18.39 8.57 18.04 8.79 17.62 8.95C17.21 9.1 16.72 9.17 16.2 9.17C15.67 9.17 15.18 9.1 14.77 8.95C14.36 8.79 14 8.56 13.7 8.27C13.4 7.97 13.18 7.62 13.03 7.2C12.87 6.79 12.8 6.3 12.8 5.78C12.8 5.25 12.87 4.76 13.03 4.35C13.18 3.93 13.41 3.58 13.7 3.28C14 2.98 14.36 2.76 14.77 2.61C15.18 2.45 15.65 2.38 16.2 2.38ZM16.2 8.93C16.34 8.93 16.48 8.89 16.64 8.79C16.78 8.69 16.91 8.53 17.02 8.29C17.14 8.05 17.24 7.73 17.31 7.33C17.38 6.92 17.42 6.4 17.42 5.79C17.42 5.16 17.38 4.65 17.31 4.25C17.24 3.85 17.14 3.52 17.02 3.29C16.91 3.06 16.78 2.89 16.64 2.79C16.5 2.69 16.35 2.65 16.2 2.65C16.05 2.65 15.91 2.69 15.75 2.79C15.61 2.89 15.48 3.05 15.37 3.29C15.25 3.54 15.15 3.85 15.08 4.25C15.01 4.66 14.97 5.18 14.97 5.79C14.97 6.42 15.01 6.93 15.08 7.33C15.15 7.73 15.25 8.06 15.37 8.29C15.48 8.52 15.61 8.69 15.75 8.79C15.9 8.87 16.04 8.93 16.2 8.93Z" fill="#292F36" fill-opacity="1.000000" fill-rule="nonzero"/>
		<path id="Vector" d="M25.83 0C26.6 0 26.99 0.38 26.99 1.15L26.99 8.6L27.76 8.79L27.76 8.97L26.6 8.97C26.29 8.97 26.05 8.93 25.86 8.83C25.67 8.73 25.52 8.62 25.42 8.5C25.29 8.36 25.19 8.19 25.13 8.02C25.02 8.25 24.88 8.43 24.7 8.6C24.56 8.75 24.36 8.87 24.12 9C23.88 9.13 23.59 9.19 23.26 9.19C22.89 9.19 22.55 9.12 22.23 8.97C21.91 8.83 21.64 8.62 21.41 8.33C21.18 8.05 20.98 7.69 20.85 7.28C20.71 6.85 20.65 6.36 20.65 5.79C20.65 5.22 20.72 4.73 20.85 4.31C20.99 3.88 21.18 3.54 21.44 3.25C21.68 2.96 21.98 2.75 22.32 2.61C22.66 2.46 23.05 2.39 23.48 2.39C23.71 2.39 23.9 2.42 24.09 2.46C24.28 2.52 24.43 2.58 24.56 2.65C24.72 2.72 24.85 2.81 24.96 2.91L24.96 0.41L24.19 0.22L24.19 0.04L25.83 0.04L25.83 0ZM24.93 3.28C24.83 3.18 24.75 3.09 24.63 3.02C24.53 2.95 24.43 2.89 24.32 2.84C24.2 2.78 24.09 2.76 23.96 2.76C23.81 2.76 23.65 2.81 23.51 2.89C23.36 2.98 23.25 3.12 23.13 3.34C23.03 3.55 22.95 3.86 22.89 4.25C22.83 4.65 22.81 5.15 22.81 5.78C22.81 6.39 22.83 6.88 22.89 7.26C22.95 7.65 23.02 7.95 23.12 8.16C23.21 8.37 23.31 8.53 23.43 8.6C23.55 8.67 23.66 8.72 23.78 8.72C23.98 8.72 24.15 8.66 24.29 8.56C24.43 8.46 24.55 8.33 24.65 8.2C24.76 8.05 24.86 7.87 24.95 7.69L24.95 3.28L24.93 3.28Z" fill="#292F36" fill-opacity="1.000000" fill-rule="nonzero"/>
		<path id="Vector" d="M32.06 9.19C30.96 9.19 30.1 8.89 29.5 8.29C28.89 7.69 28.59 6.85 28.59 5.79C28.59 5.26 28.66 4.78 28.82 4.36C28.97 3.95 29.19 3.59 29.46 3.29C29.73 2.99 30.06 2.78 30.46 2.62C30.84 2.46 31.27 2.39 31.74 2.39C32.23 2.39 32.66 2.46 33.03 2.59C33.41 2.74 33.73 2.92 34 3.15C34.27 3.38 34.47 3.65 34.61 3.96C34.75 4.28 34.82 4.61 34.82 4.96C34.82 5.08 34.82 5.19 34.81 5.28C34.8 5.36 34.78 5.45 34.77 5.52C34.74 5.6 34.72 5.68 34.7 5.73C34.33 5.8 33.93 5.88 33.5 5.92C33.14 5.98 32.73 6.02 32.26 6.05C31.78 6.08 31.3 6.1 30.79 6.1C30.79 6.63 30.83 7.08 30.9 7.43C30.97 7.79 31.08 8.07 31.21 8.27C31.36 8.49 31.51 8.63 31.7 8.72C31.88 8.8 32.1 8.85 32.31 8.85C32.57 8.85 32.81 8.8 33.04 8.7C33.27 8.6 33.47 8.49 33.63 8.33C33.8 8.17 33.93 7.99 34.03 7.79C34.13 7.59 34.17 7.39 34.17 7.18L34.48 7.18C34.48 7.43 34.43 7.67 34.31 7.92C34.2 8.16 34.03 8.37 33.81 8.56C33.6 8.75 33.34 8.89 33.04 9C32.75 9.13 32.43 9.19 32.06 9.19ZM30.77 5.78C31.06 5.78 31.31 5.78 31.54 5.76C31.77 5.75 31.96 5.73 32.11 5.72C32.3 5.7 32.44 5.68 32.57 5.66C32.58 5.58 32.61 5.48 32.63 5.38C32.64 5.28 32.66 5.18 32.67 5.06C32.68 4.95 32.68 4.82 32.68 4.69C32.68 4.31 32.66 3.98 32.6 3.72C32.54 3.46 32.47 3.25 32.37 3.08C32.28 2.92 32.18 2.79 32.06 2.74C31.93 2.68 31.83 2.64 31.71 2.64C31.6 2.64 31.48 2.68 31.37 2.76C31.26 2.85 31.16 3.01 31.06 3.22C30.97 3.45 30.89 3.76 30.83 4.18C30.77 4.59 30.77 5.12 30.77 5.78Z" fill="#292F36" fill-opacity="1.000000" fill-rule="nonzero"/>
		<path id="Vector" d="M40.22 2.82C39.96 2.82 39.74 2.88 39.54 2.98C39.34 3.08 39.16 3.21 39.02 3.34C38.86 3.49 38.74 3.66 38.61 3.85L38.61 8.6L39.38 8.79L39.38 8.97L35.78 8.97L35.78 8.79L36.55 8.6L36.55 2.95L35.78 2.76L35.78 2.58L36.94 2.58C37.24 2.58 37.48 2.64 37.68 2.74C37.87 2.84 38.02 2.95 38.14 3.06C38.26 3.21 38.36 3.36 38.42 3.54C38.55 3.35 38.71 3.18 38.89 3.02C39.05 2.89 39.25 2.78 39.49 2.66C39.74 2.55 40.01 2.51 40.33 2.51C40.79 2.51 41.13 2.62 41.36 2.82C41.59 3.04 41.69 3.34 41.69 3.72C41.69 4.01 41.61 4.25 41.43 4.42C41.26 4.59 41.02 4.68 40.73 4.68C40.66 4.68 40.61 4.68 40.53 4.68C40.46 4.68 40.42 4.66 40.38 4.66C40.32 4.65 40.26 4.65 40.22 4.62L40.22 2.82Z" fill="#292F36" fill-opacity="1.000000" fill-rule="nonzero"/>
		<path id="Vector" d="M47.22 4.49C47.22 4.21 47.19 3.95 47.13 3.73C47.07 3.52 47 3.35 46.9 3.22C46.82 3.08 46.72 2.98 46.59 2.92C46.47 2.86 46.36 2.82 46.24 2.82C46.04 2.82 45.87 2.88 45.73 2.98C45.59 3.08 45.46 3.21 45.37 3.34C45.26 3.49 45.17 3.66 45.09 3.85L45.09 8.6L45.86 8.79L45.86 8.97L42.26 8.97L42.26 8.79L43.03 8.6L43.03 2.95L42.26 2.76L42.26 2.58L43.42 2.58C43.72 2.58 43.96 2.64 44.16 2.74C44.35 2.84 44.5 2.95 44.62 3.06C44.75 3.21 44.85 3.36 44.9 3.54C45.02 3.32 45.16 3.12 45.33 2.95C45.47 2.81 45.67 2.68 45.9 2.55C46.13 2.42 46.43 2.36 46.77 2.36C47.14 2.36 47.49 2.42 47.79 2.55C48.1 2.66 48.36 2.84 48.57 3.02C48.79 3.22 48.96 3.44 49.09 3.69C49.21 3.95 49.27 4.21 49.27 4.48L49.27 8.59L50.04 8.77L50.04 8.96L48.37 8.96C47.6 8.96 47.22 8.57 47.22 7.8L47.22 4.49Z" fill="#292F36" fill-opacity="1.000000" fill-rule="nonzero"/>
		<path id="Vector" d="M1.35 18L1.35 17.47L11.27 17.47L11.27 18L9.19 18.52L9.19 29.3L16.67 29.3L16.67 18.52L14.58 18L14.58 17.47L24.5 17.47L24.5 18L22.42 18.52L22.42 40.79L24.5 41.32L24.5 41.85L14.58 41.85L14.58 41.31L16.67 40.78L16.67 30.17L9.19 30.17L9.19 40.78L11.27 41.31L11.27 41.83L1.35 41.83L1.35 41.31L3.44 40.78L3.44 18.51L1.35 18Z" fill="#292F36" fill-opacity="1.000000" fill-rule="nonzero"/>
		<path id="Vector" d="M36.84 23.9C38.28 23.9 39.56 24.12 40.71 24.53C41.85 24.95 42.8 25.56 43.6 26.36C44.4 27.16 45.02 28.13 45.43 29.27C45.84 30.41 46.06 31.7 46.06 33.14C46.06 34.58 45.84 35.87 45.43 37.01C45.02 38.15 44.4 39.11 43.6 39.91C42.8 40.71 41.83 41.32 40.71 41.73C39.56 42.15 38.28 42.36 36.84 42.36C35.4 42.36 34.11 42.15 32.97 41.73C31.83 41.32 30.87 40.71 30.07 39.91C29.27 39.11 28.66 38.14 28.24 37.01C27.83 35.87 27.62 34.58 27.62 33.14C27.62 31.7 27.83 30.41 28.24 29.27C28.66 28.13 29.27 27.17 30.07 26.36C30.87 25.55 31.84 24.95 32.97 24.53C34.11 24.12 35.4 23.9 36.84 23.9ZM36.84 41.65C37.24 41.65 37.62 41.52 38.02 41.26C38.42 41.01 38.76 40.56 39.08 39.92C39.39 39.28 39.65 38.41 39.85 37.31C40.05 36.21 40.15 34.81 40.15 33.11C40.15 31.41 40.05 30.01 39.85 28.92C39.65 27.82 39.39 26.95 39.08 26.3C38.76 25.66 38.41 25.22 38.02 24.96C37.64 24.7 37.24 24.58 36.84 24.58C36.44 24.58 36.05 24.7 35.65 24.96C35.25 25.22 34.91 25.66 34.6 26.3C34.28 26.95 34.03 27.82 33.83 28.92C33.63 30.01 33.53 31.41 33.53 33.11C33.53 34.81 33.63 36.21 33.83 37.31C34.03 38.41 34.28 39.28 34.6 39.92C34.91 40.56 35.27 41.01 35.65 41.26C36.05 41.52 36.44 41.65 36.84 41.65Z" fill="#292F36" fill-opacity="1.000000" fill-rule="nonzero"/>
		<path id="Vector" d="M72.14 29.64C72.14 28.82 72.07 28.1 71.92 27.54C71.78 26.99 71.61 26.52 71.38 26.16C71.15 25.8 70.91 25.55 70.65 25.38C70.38 25.22 70.13 25.13 69.87 25.13C69.43 25.13 69.04 25.28 68.7 25.56C68.36 25.85 68.07 26.17 67.81 26.52C67.54 26.93 67.29 27.4 67.09 27.9L67.09 40.78L69.18 41.31L69.18 41.83L59.45 41.83L59.45 41.31L61.53 40.78L61.53 29.64C61.53 28.82 61.46 28.1 61.32 27.54C61.18 26.99 61 26.52 60.78 26.16C60.55 25.8 60.31 25.55 60.05 25.38C59.78 25.22 59.52 25.13 59.26 25.13C58.82 25.13 58.44 25.28 58.09 25.56C57.75 25.85 57.46 26.17 57.21 26.52C56.92 26.93 56.68 27.4 56.48 27.9L56.48 40.78L58.56 41.31L58.56 41.83L48.83 41.83L48.83 41.31L50.91 40.78L50.91 25.48L48.83 24.95L48.83 24.42L51.95 24.42C52.77 24.42 53.44 24.56 53.95 24.83C54.48 25.1 54.88 25.42 55.19 25.73C55.54 26.13 55.79 26.56 55.97 27.02C56.27 26.43 56.64 25.92 57.08 25.45C57.48 25.05 57.96 24.69 58.54 24.36C59.12 24.03 59.82 23.88 60.66 23.88C62.05 23.88 63.26 24.19 64.26 24.8C65.27 25.42 66.04 26.22 66.57 27.19C66.87 26.59 67.24 26.05 67.68 25.55C68.08 25.13 68.57 24.75 69.14 24.4C69.73 24.06 70.43 23.88 71.27 23.88C72.22 23.88 73.08 24.03 73.88 24.33C74.67 24.63 75.35 25.05 75.92 25.58C76.49 26.1 76.93 26.7 77.25 27.4C77.56 28.1 77.72 28.84 77.72 29.63L77.72 40.76L79.8 41.29L79.8 41.82L75.28 41.82C73.19 41.82 72.15 40.78 72.15 38.69L72.15 29.64L72.14 29.64Z" fill="#292F36" fill-opacity="1.000000" fill-rule="nonzero"/>
		<path id="Vector" d="M91.28 42.35C88.31 42.35 86 41.53 84.36 39.89C82.72 38.25 81.89 36.01 81.89 33.13C81.89 31.68 82.1 30.4 82.52 29.26C82.93 28.12 83.52 27.16 84.26 26.35C85 25.55 85.9 24.93 86.96 24.52C88.01 24.1 89.17 23.89 90.41 23.89C91.71 23.89 92.88 24.08 93.91 24.45C94.94 24.82 95.82 25.32 96.53 25.95C97.25 26.57 97.8 27.32 98.19 28.16C98.58 29 98.76 29.9 98.76 30.86C98.76 31.18 98.75 31.47 98.7 31.71C98.66 31.96 98.63 32.17 98.58 32.36C98.5 32.58 98.45 32.78 98.4 32.94C97.38 33.15 96.31 33.33 95.16 33.47C94.19 33.61 93.07 33.73 91.79 33.84C90.52 33.94 89.18 34 87.8 34C87.8 35.44 87.9 36.64 88.11 37.59C88.33 38.55 88.61 39.32 88.98 39.89C89.35 40.46 89.8 40.86 90.31 41.11C90.82 41.35 91.38 41.48 91.98 41.48C92.68 41.48 93.34 41.35 93.95 41.09C94.56 40.83 95.09 40.49 95.55 40.06C96.01 39.64 96.36 39.15 96.63 38.61C96.9 38.07 97.03 37.51 97.03 36.95L97.9 36.95C97.9 37.65 97.75 38.32 97.43 38.96C97.12 39.62 96.68 40.19 96.09 40.69C95.51 41.19 94.82 41.59 94.01 41.89C93.18 42.19 92.27 42.35 91.28 42.35ZM87.8 33.13C88.58 33.13 89.28 33.11 89.88 33.07C90.48 33.03 91 33 91.41 32.95C91.89 32.91 92.31 32.85 92.67 32.78C92.71 32.56 92.77 32.3 92.84 32.01C92.88 31.76 92.92 31.47 92.95 31.16C92.98 30.84 93.01 30.51 93.01 30.17C93.01 29.13 92.92 28.26 92.77 27.54C92.61 26.83 92.39 26.26 92.15 25.82C91.91 25.38 91.62 25.06 91.32 24.88C91.01 24.69 90.7 24.59 90.4 24.59C90.1 24.59 89.78 24.7 89.47 24.92C89.15 25.15 88.88 25.56 88.64 26.17C88.4 26.79 88.2 27.66 88.03 28.77C87.88 29.89 87.8 31.34 87.8 33.13Z" fill="#292F36" fill-opacity="1.000000" fill-rule="nonzero"/>
		<path id="Vector" d="M115.85 41.48L115.85 27.36L103.37 17.48L103.37 41.48L115.85 41.48Z" fill="#292F36" fill-opacity="1.000000" fill-rule="nonzero"/>
		<path id="Vector" d="M131.28 41.48L131.28 27.36L119 17.48L119 41.48L131.28 41.48Z" fill="#292F36" fill-opacity="1.000000" fill-rule="nonzero"/>
	</g>
</svg>
