<svg width="93.000000" height="93.000000" viewBox="0 0 93 93" fill="none" xmlns="http://www.w3.org/2000/svg" xmlns:xlink="http://www.w3.org/1999/xlink">
	<desc>
			Created with Pixso.
	</desc>
	<defs>
		<clipPath id="clip2_94">
			<rect id="IMAGE" rx="0.000000" width="33.000000" height="33.000000" transform="translate(30.500000 29.500000)" fill="white" fill-opacity="0"/>
		</clipPath>
	</defs>
	<rect id="Rectangle" rx="46.500000" width="93.000000" height="93.000000" fill="#F4F0EC" fill-opacity="1.000000"/>
	<g clip-path="url(#clip2_94)">
		<path id="Vector" d="M56.38 51.32C54.51 50.38 54.36 50.3 52.89 51.39C51.91 52.12 51.26 52.77 50.11 52.53C48.96 52.28 46.47 50.9 44.29 48.73C42.11 46.55 40.65 43.99 40.4 42.85C40.16 41.7 40.82 41.06 41.54 40.08C42.56 38.69 42.48 38.46 41.61 36.59C40.93 35.14 39.08 32.21 37.85 30.99C36.53 29.69 36.53 29.92 35.67 30.27C34.98 30.56 34.32 30.92 33.69 31.33C32.46 32.15 31.77 32.83 31.3 33.85C30.82 34.87 30.6 37.26 33.07 41.74C35.54 46.22 37.27 48.52 40.85 52.09C44.43 55.66 47.19 57.58 51.22 59.84C56.2 62.63 58.11 62.09 59.13 61.61C60.16 61.13 60.84 60.45 61.66 59.22C62.07 58.6 62.43 57.93 62.72 57.24C63.07 56.39 63.3 56.39 62 55.07C60.77 53.84 57.82 52.04 56.38 51.32Z" stroke="#CDA274" stroke-opacity="1.000000" stroke-width="2.000000"/>
	</g>
</svg>
