<svg width="177.000000" height="50.000000" viewBox="0 0 177 50" fill="none" xmlns="http://www.w3.org/2000/svg" xmlns:xlink="http://www.w3.org/1999/xlink">
	<desc>
			Created with Pixso.
	</desc>
	<defs>
		<clipPath id="clip2_41">
			<rect id="IMAGE" rx="0.000000" width="176.000000" height="49.000000" transform="translate(0.500000 0.500000)" fill="white" fill-opacity="0"/>
		</clipPath>
	</defs>
	<g clip-path="url(#clip2_41)">
		<path id="Vector" d="M44.88 39L44.88 38.59L45.68 38.28C46.21 38.09 46.56 37.84 46.72 37.52C46.9 37.2 47 36.77 47 36.24L47 15.36C47 14.82 46.92 14.4 46.76 14.08C46.6 13.76 46.24 13.5 45.68 13.32L44.88 13L44.88 12.6L55.16 12.6L55.16 13L54.36 13.32C53.82 13.5 53.46 13.76 53.28 14.08C53.12 14.4 53.04 14.82 53.04 15.36L53.04 36.24C53.04 36.77 53.12 37.2 53.28 37.52C53.46 37.81 53.82 38.06 54.36 38.28L55.16 38.59L55.16 39L44.88 39ZM56.83 39L56.83 38.59L57.39 38.43C58.32 38.17 58.79 37.52 58.79 36.48L58.79 23.96C58.79 23.37 58.69 22.94 58.51 22.68C58.32 22.38 57.96 22.18 57.43 22.08L56.83 21.92L56.83 21.52L63.67 19.2L64.07 19.6L64.39 22C65.32 21.17 66.37 20.49 67.55 19.95C68.72 19.42 69.88 19.16 71.03 19.16C72.79 19.16 74.13 19.64 75.07 20.6C76.03 21.56 76.51 23.02 76.51 25L76.51 36.52C76.51 37.56 77.01 38.21 78.03 38.48L78.39 38.59L78.39 39L68.95 39L68.95 38.59L69.47 38.43C70.4 38.14 70.87 37.49 70.87 36.48L70.87 23.72C70.87 22.01 70.01 21.16 68.31 21.16C67.13 21.16 65.85 21.74 64.47 22.92L64.47 36.52C64.47 37.56 64.93 38.21 65.87 38.48L66.23 38.59L66.23 39L56.83 39ZM87.36 39.59C85.65 39.59 84.32 39.17 83.36 38.32C82.42 37.46 81.96 36.1 81.96 34.24L81.96 20.56L79.2 20.56L79.2 20.16L80.16 20C80.98 19.81 81.69 19.54 82.28 19.2C82.89 18.85 83.49 18.38 84.08 17.79L87.36 14.16L87.76 14.16L87.64 19.76L92.12 19.76L92.12 20.56L87.6 20.56L87.6 34.96C87.6 35.89 87.8 36.59 88.2 37.08C88.62 37.56 89.16 37.8 89.8 37.8C90.36 37.8 90.85 37.66 91.28 37.4C91.7 37.1 92.13 36.72 92.56 36.24L92.96 36.64C92.42 37.54 91.69 38.26 90.76 38.8C89.82 39.33 88.69 39.59 87.36 39.59ZM104.13 19.16C105.87 19.16 107.35 19.52 108.57 20.24C109.8 20.93 110.73 21.89 111.37 23.12C112.04 24.32 112.37 25.69 112.37 27.24C112.37 27.53 112.36 27.84 112.33 28.16C112.31 28.45 112.25 28.72 112.17 28.96L100.25 28.96C100.28 31.84 100.79 33.91 101.77 35.2C102.79 36.45 104.28 37.08 106.25 37.08C107.59 37.08 108.67 36.86 109.49 36.43C110.32 36.01 111.09 35.38 111.81 34.56L112.21 34.91C111.39 36.38 110.28 37.53 108.89 38.36C107.53 39.18 105.89 39.59 103.97 39.59C102.08 39.59 100.4 39.2 98.93 38.4C97.47 37.57 96.32 36.4 95.49 34.88C94.67 33.36 94.25 31.54 94.25 29.44C94.25 27.25 94.73 25.4 95.69 23.88C96.65 22.33 97.88 21.16 99.37 20.36C100.89 19.56 102.48 19.16 104.13 19.16ZM104.01 19.95C103.24 19.95 102.57 20.2 102.01 20.68C101.48 21.13 101.05 21.96 100.73 23.16C100.44 24.33 100.28 26 100.25 28.16L107.09 28.16C107.36 25.25 107.25 23.16 106.77 21.88C106.29 20.6 105.37 19.95 104.01 19.95ZM114.37 39L114.37 38.59L114.97 38.43C115.5 38.28 115.86 38.04 116.05 37.72C116.26 37.4 116.37 36.98 116.37 36.48L116.37 23.96C116.37 23.37 116.26 22.94 116.05 22.68C115.86 22.38 115.5 22.18 114.97 22.08L114.37 21.92L114.37 21.52L121.25 19.2L121.65 19.6L122.01 23.04L122.01 23.36C122.38 22.61 122.86 21.93 123.45 21.32C124.06 20.68 124.73 20.16 125.45 19.76C126.19 19.36 126.93 19.16 127.65 19.16C128.66 19.16 129.43 19.44 129.97 20C130.5 20.56 130.77 21.26 130.77 22.12C130.77 23.02 130.5 23.73 129.97 24.24C129.46 24.72 128.85 24.96 128.13 24.96C127.01 24.96 126.02 24.4 125.17 23.28L125.09 23.2C124.82 22.82 124.51 22.62 124.17 22.6C123.82 22.54 123.5 22.7 123.21 23.08C122.94 23.32 122.71 23.61 122.53 23.96C122.37 24.28 122.21 24.65 122.05 25.08L122.05 36.24C122.05 37.3 122.51 37.97 123.45 38.24L124.73 38.59L124.73 39L114.37 39ZM132.02 39L132.02 38.59L132.58 38.43C133.52 38.17 133.98 37.52 133.98 36.48L133.98 23.96C133.98 23.37 133.89 22.94 133.7 22.68C133.52 22.38 133.16 22.18 132.62 22.08L132.02 21.92L132.02 21.52L138.86 19.2L139.26 19.6L139.58 22C140.52 21.17 141.57 20.49 142.74 19.95C143.92 19.42 145.08 19.16 146.22 19.16C147.98 19.16 149.33 19.64 150.26 20.6C151.22 21.56 151.7 23.02 151.7 25L151.7 36.52C151.7 37.56 152.21 38.21 153.22 38.48L153.58 38.59L153.58 39L144.14 39L144.14 38.59L144.66 38.43C145.6 38.14 146.06 37.49 146.06 36.48L146.06 23.72C146.06 22.01 145.21 21.16 143.5 21.16C142.33 21.16 141.05 21.74 139.66 22.92L139.66 36.52C139.66 37.56 140.13 38.21 141.06 38.48L141.42 38.59L141.42 39L132.02 39ZM165.27 39.59C163.24 39.59 161.48 39.18 159.99 38.36C158.49 37.5 157.33 36.3 156.51 34.75C155.71 33.21 155.31 31.4 155.31 29.32C155.31 27.24 155.73 25.44 156.59 23.92C157.47 22.4 158.65 21.22 160.15 20.4C161.67 19.57 163.37 19.16 165.27 19.16C167.16 19.16 168.85 19.57 170.35 20.4C171.84 21.2 173.01 22.36 173.87 23.88C174.75 25.4 175.19 27.21 175.19 29.32C175.19 31.42 174.77 33.25 173.95 34.8C173.15 36.32 172 37.5 170.51 38.36C169.04 39.18 167.29 39.59 165.27 39.59ZM165.27 38.8C166.2 38.8 166.95 38.53 167.51 38C168.07 37.46 168.47 36.52 168.71 35.16C168.97 33.8 169.11 31.88 169.11 29.4C169.11 26.89 168.97 24.96 168.71 23.6C168.47 22.24 168.07 21.29 167.51 20.76C166.95 20.22 166.2 19.95 165.27 19.95C164.33 19.95 163.57 20.22 162.99 20.76C162.43 21.29 162.01 22.24 161.75 23.6C161.51 24.96 161.39 26.89 161.39 29.4C161.39 31.88 161.51 33.8 161.75 35.16C162.01 36.52 162.43 37.46 162.99 38C163.57 38.53 164.33 38.8 165.27 38.8Z" fill="#292F36" fill-opacity="1.000000" fill-rule="nonzero"/>
		<path id="Vector" d="M0 42L13.45 42L13.45 32.49C13.45 30.48 15.08 28.85 17.1 28.85C19.11 28.85 20.74 30.48 20.74 32.49L20.74 42L33.99 42L33.99 8C15.22 8 0 23.22 0 42Z" fill="#CDA274" fill-opacity="1.000000" fill-rule="nonzero"/>
	</g>
</svg>
