<svg class="hidden">
    <symbol viewBox="0 0 9.66797 18" xmlns="http://www.w3.org/2000/svg" xmlns:xlink="http://www.w3.org/1999/xlink" id="facebook">
    	<path d="M9.03 10.12L9.52 6.89L6.39 6.89L6.39 4.78C6.39 3.86 6.82 3.02 8.22 3.02L9.66 3.02L9.66 0.24C9.66 0.24 8.36 0 7.13 0C4.57 0 2.88 1.58 2.88 4.39L2.88 6.89L0 6.89L0 10.12L2.88 10.12L2.88 18L6.39 18L6.39 10.12L9.03 10.12Z" fill-opacity="1.000000" fill-rule="nonzero"/>
    </symbol>
    <symbol viewBox="0 0 17.9648 14.5898" xmlns="http://www.w3.org/2000/svg" xmlns:xlink="http://www.w3.org/1999/xlink" id="twitter">
	<path d="M16.13 3.62C16.83 3.09 17.47 2.46 17.96 1.72C17.33 2 16.59 2.21 15.85 2.28C16.62 1.82 17.19 1.12 17.47 0.24C16.76 0.66 15.96 0.98 15.15 1.16C14.44 0.42 13.5 0 12.44 0C10.4 0 8.75 1.65 8.75 3.69C8.75 3.97 8.78 4.25 8.85 4.53C5.8 4.35 3.05 2.88 1.23 0.66C0.91 1.19 0.73 1.82 0.73 2.53C0.73 3.79 1.37 4.92 2.39 5.58C1.79 5.55 1.19 5.41 0.7 5.13L0.7 5.16C0.7 6.96 1.96 8.43 3.65 8.78C3.37 8.85 3.02 8.92 2.7 8.92C2.46 8.92 2.25 8.89 2 8.85C2.46 10.33 3.83 11.39 5.44 11.42C4.18 12.41 2.6 13 0.87 13C0.56 13 0.28 12.97 0 12.93C1.61 13.99 3.55 14.58 5.66 14.58C12.44 14.58 16.13 9 16.13 4.11C16.13 3.93 16.13 3.79 16.13 3.62Z" fill-opacity="1.000000" fill-rule="nonzero"/>
    </symbol>
    <symbol viewBox="0 0 15.75 15.7148" xmlns="http://www.w3.org/2000/svg" xmlns:xlink="http://www.w3.org/1999/xlink" id="linkedin">
	    <path d="M3.51 15.71L3.51 5.2L0.24 5.2L0.24 15.71L3.51 15.71ZM1.86 3.79C2.91 3.79 3.76 2.91 3.76 1.86C3.76 0.84 2.91 0 1.86 0C0.84 0 0 0.84 0 1.86C0 2.91 0.84 3.79 1.86 3.79ZM15.71 15.71L15.75 15.71L15.75 9.94C15.75 7.13 15.11 4.95 11.81 4.95C10.23 4.95 9.17 5.83 8.71 6.64L8.68 6.64L8.68 5.2L5.55 5.2L5.55 15.71L8.82 15.71L8.82 10.51C8.82 9.14 9.07 7.83 10.75 7.83C12.44 7.83 12.48 9.38 12.48 10.61L12.48 15.71L15.71 15.71Z" fill-opacity="1.000000" fill-rule="nonzero"/>
    </symbol>
    <symbol viewBox="0 0 16.625 16.625" xmlns="http://www.w3.org/2000/svg" xmlns:xlink="http://www.w3.org/1999/xlink" id="instagram">
	    <path d="M8.33 4.02C5.95 4.02 4.06 5.95 4.06 8.29C4.06 10.66 5.95 12.56 8.33 12.56C10.66 12.56 12.59 10.66 12.59 8.29C12.59 5.95 10.66 4.02 8.33 4.02ZM8.33 11.07C6.8 11.07 5.54 9.85 5.54 8.29C5.54 6.77 6.77 5.54 8.33 5.54C9.85 5.54 11.07 6.77 11.07 8.29C11.07 9.85 9.85 11.07 8.33 11.07ZM13.74 3.87C13.74 3.32 13.3 2.87 12.74 2.87C12.19 2.87 11.74 3.32 11.74 3.87C11.74 4.43 12.19 4.87 12.74 4.87C13.3 4.87 13.74 4.43 13.74 3.87ZM16.56 4.87C16.49 3.54 16.19 2.35 15.23 1.39C14.26 0.42 13.08 0.12 11.74 0.05C10.37 -0.02 6.25 -0.02 4.87 0.05C3.54 0.12 2.39 0.42 1.39 1.39C0.42 2.35 0.12 3.54 0.05 4.87C-0.02 6.25 -0.02 10.37 0.05 11.74C0.12 13.08 0.42 14.23 1.39 15.23C2.39 16.19 3.54 16.49 4.87 16.56C6.25 16.64 10.37 16.64 11.74 16.56C13.08 16.49 14.26 16.19 15.23 15.23C16.19 14.23 16.49 13.08 16.56 11.74C16.64 10.37 16.64 6.25 16.56 4.87ZM14.78 13.19C14.52 13.93 13.93 14.49 13.22 14.78C12.11 15.23 9.51 15.12 8.33 15.12C7.1 15.12 4.5 15.23 3.43 14.78C2.69 14.49 2.13 13.93 1.83 13.19C1.39 12.11 1.5 9.51 1.5 8.29C1.5 7.1 1.39 4.5 1.83 3.39C2.13 2.69 2.69 2.13 3.43 1.83C4.5 1.39 7.1 1.5 8.33 1.5C9.51 1.5 12.11 1.39 13.22 1.83C13.93 2.09 14.49 2.69 14.78 3.39C15.23 4.5 15.12 7.1 15.12 8.29C15.12 9.51 15.23 12.11 14.78 13.19Z" fill-opacity="1.000000" fill-rule="nonzero"/>
    </symbol>
</svg>